<?xml version="1.0" encoding="UTF-8"?>
<svg width="28px" height="28px" viewBox="0 0 28 28" version="1.1" xmlns="http://www.w3.org/2000/svg" xmlns:xlink="http://www.w3.org/1999/xlink">
    <!-- Generator: Sketch 63 (92445) - https://sketch.com -->
    <title>消息回执-点击前状态</title>
    <desc>Created with Sketch.</desc>
    <g id="后台设计" stroke="none" stroke-width="1" fill="none" fill-rule="evenodd">
        <g id="联机服务调度-各种图标状态" transform="translate(-1029.000000, -391.000000)">
            <g id="编组-8" transform="translate(290.000000, 358.000000)">
                <g id="消息回执状态-不可点击状态备份-4" transform="translate(724.000000, 33.000000)">
                    <g id="消息回执-点击前状态-2" transform="translate(15.000000, 0.000000)">
                        <g id="消息回执-点击前状态">
                            <rect id="矩形" fill="#EAEFFF" x="3" y="5.9992" width="23" height="18.0008" rx="3"></rect>
                            <g id="编组" transform="translate(2.000000, 4.000000)" fill="#e02020">
                                <path d="M16.3939,13.3141 L16.3939,18.2141 C16.3939,18.7231 16.8059,19.1341 17.3139,19.1341 L17.3999,19.1341 C17.9089,19.1341 18.3199,18.7231 18.3199,18.2141 L18.3199,15.6821 L22.3559,19.7181 C22.7319,20.0941 23.3419,20.0941 23.7179,19.7181 C24.0939,19.3421 24.0939,18.7321 23.7179,18.3561 L19.6819,14.3201 L22.1709,14.3201 C22.7039,14.3201 23.1339,13.8891 23.1339,13.3571 C23.1339,12.8261 22.7039,12.3941 22.1709,12.3941 L17.3999,12.3941 L17.3569,12.3941 L17.3139,12.3941 C16.8059,12.3941 16.3939,12.8061 16.3939,13.3141" id="Fill-3"></path>
                                <path d="M11.9164,5.8922 L2.0004,4.0742 L2.0004,3.9992 C2.0004,2.8952 2.8954,1.9992 4.0004,1.9992 L20.0004,1.9992 C21.1044,1.9992 22.0004,2.8952 22.0004,3.9992 L22.0004,4.0422 L11.9164,5.8922 Z M20.0004,-0.0008 L4.0004,-0.0008 C1.7944,-0.0008 0.0004,1.7942 0.0004,3.9992 L0.0004,15.9992 C0.0004,18.2052 1.7944,19.9992 4.0004,19.9992 L14.0204,19.9992 L14.0204,19.9822 C14.0524,19.9852 14.0794,19.9992 14.1114,19.9992 C14.6644,19.9992 15.1114,19.5522 15.1114,18.9992 C15.1114,18.4482 14.6644,17.9992 14.1114,17.9992 C14.0794,17.9992 14.0524,18.0152 14.0204,18.0182 L14.0204,17.9992 L4.0004,17.9992 C2.8954,17.9992 2.0004,17.1042 2.0004,15.9992 L2.0004,6.1072 L11.9164,7.9252 L22.0004,6.0762 L22.0004,9.8562 L22.0154,9.8562 C22.0544,10.3722 22.4734,10.7842 23.0004,10.7842 C23.5264,10.7842 23.9464,10.3722 23.9854,9.8562 L24.0004,9.8562 L24.0004,3.9992 C24.0004,1.7942 22.2054,-0.0008 20.0004,-0.0008 L20.0004,-0.0008 Z" id="Fill-5"></path>
                            </g>
                        </g>
                    </g>
                </g>
            </g>
        </g>
    </g>
</svg>