<?xml version="1.0" encoding="UTF-8"?>
<svg width="29px" height="28px" viewBox="0 0 29 28" version="1.1" xmlns="http://www.w3.org/2000/svg" xmlns:xlink="http://www.w3.org/1999/xlink">
    <!-- Generator: Sketch 63 (92445) - https://sketch.com -->
    <title>批转联服务调度-点击前状态</title>
    <desc>Created with Sketch.</desc>
    <defs>
        <polygon id="path-1" points="0.718087385 0.721221613 20 0.721221613 20 17.9995 0.718087385 17.9995"></polygon>
    </defs>
    <g id="后台设计" stroke="none" stroke-width="1" fill="none" fill-rule="evenodd">
        <g id="联机服务调度-各种图标状态" transform="translate(-603.000000, -391.000000)">
            <g id="编组-8" transform="translate(290.000000, 358.000000)">
                <g id="批转联服务调度-加载失败状态备份-4" transform="translate(278.400000, 33.000000)">
                    <g id="批转联服务调度-点击前状态-2" transform="translate(35.000000, 0.000000)">
                        <g id="批转联服务调度-点击前状态">
                            <circle id="椭圆形" fill="#EAEFFF" cx="14" cy="14" r="12"></circle>
                            <g id="编组" transform="translate(0.000000, 2.000000)">
                                <path d="M11.9828,2.2027 C13.3048,1.9337 14.6988,1.9337 16.0168,2.2027 C16.6588,2.3347 17.2898,2.5297 17.8918,2.7847 C18.3998,3.0007 18.9878,2.7627 19.2028,2.2537 C19.4178,1.7447 19.1798,1.1577 18.6708,0.9427 C17.9468,0.6367 17.1888,0.4007 16.4178,0.2437 C14.8348,-0.0793 13.1678,-0.0803 11.5828,0.2437 C10.8108,0.4007 10.0528,0.6367 9.3288,0.9427 C8.6188,1.2437 7.9318,1.6157 7.2918,2.0497 C6.6558,2.4767 6.0578,2.9707 5.5148,3.5147 C4.9718,4.0567 4.4788,4.6537 4.0498,5.2887 C3.6188,5.9277 3.2468,6.6127 2.9438,7.3277 C2.6358,8.0547 2.4008,8.8127 2.2438,9.5827 C2.0818,10.3737 1.9998,11.1857 1.9998,11.9997 C1.9998,12.3657 2.0218,12.7307 2.0548,13.0957 L1.7058,12.7467 C1.3168,12.3567 0.6798,12.3567 0.2918,12.7467 C-0.0972,13.1357 -0.0972,13.7707 0.2918,14.1607 L3.1208,16.9887 C3.2448,17.1137 3.3968,17.1827 3.5558,17.2277 C3.6068,17.2447 3.6588,17.2497 3.7118,17.2587 C3.7558,17.2637 3.7978,17.2777 3.8428,17.2777 C3.8508,17.2777 3.8578,17.2807 3.8648,17.2807 C3.9958,17.2807 4.1278,17.2557 4.2538,17.2017 C4.7628,16.9857 5.0008,16.3987 4.7858,15.8907 C4.5298,15.2877 4.3338,14.6567 4.2028,14.0157 C4.0678,13.3567 3.9998,12.6787 3.9998,11.9997 C3.9998,11.3207 4.0678,10.6417 4.2028,9.9827 C4.3338,9.3437 4.5298,8.7117 4.7858,8.1067 C5.0378,7.5117 5.3478,6.9397 5.7068,6.4097 C6.0648,5.8797 6.4758,5.3817 6.9298,4.9277 C7.3818,4.4737 7.8798,4.0637 8.4108,3.7067 C8.9448,3.3457 9.5158,3.0347 10.1078,2.7847 C10.7108,2.5297 11.3408,2.3347 11.9828,2.2027" id="Fill-3" fill="#c2c2c2"></path>
                                <g transform="translate(8.000000, 6.000000)">
                                    <mask id="mask-2" fill="white">
                                        <use xlink:href="#path-1"></use>
                                    </mask>
                                    <g id="Clip-6"></g>
                                    <path d="M19.7084,3.8375 L16.8804,1.0095 C16.6804,0.8095 16.4164,0.7165 16.1534,0.7215 C16.0174,0.7185 15.8794,0.7395 15.7454,0.7965 C15.2364,1.0115 14.9994,1.5985 15.2144,2.1075 C15.4704,2.7115 15.6664,3.3435 15.7974,3.9835 C15.9314,4.6395 15.9994,5.3175 15.9994,5.9995 C15.9994,6.6815 15.9314,7.3595 15.7974,8.0165 C15.6664,8.6565 15.4704,9.2875 15.2144,9.8915 C14.9634,10.4845 14.6534,11.0565 14.2934,11.5895 C13.9354,12.1195 13.5234,12.6175 13.0704,13.0705 C12.6194,13.5225 12.1214,13.9335 11.5894,14.2925 C11.0554,14.6535 10.4834,14.9645 9.8924,15.2145 C9.2894,15.4695 8.6584,15.6645 8.0174,15.7965 C6.6984,16.0665 5.3054,16.0665 3.9824,15.7965 C3.3414,15.6645 2.7104,15.4695 2.1074,15.2145 C1.5994,15.0005 1.0124,15.2355 0.7974,15.7455 C0.5824,16.2545 0.8194,16.8415 1.3284,17.0565 C2.0534,17.3625 2.8114,17.5985 3.5824,17.7555 C4.3744,17.9175 5.1874,17.9995 5.9994,17.9995 C6.8124,17.9995 7.6254,17.9175 8.4174,17.7555 C9.1884,17.5985 9.9464,17.3625 10.6714,17.0565 C11.3814,16.7555 12.0674,16.3835 12.7104,15.9485 C13.3474,15.5185 13.9434,15.0255 14.4844,14.4845 C15.0274,13.9415 15.5214,13.3455 15.9504,12.7095 C16.3834,12.0675 16.7554,11.3825 17.0564,10.6705 C17.3624,9.9455 17.5994,9.1875 17.7564,8.4165 C17.9174,7.6295 17.9994,6.8165 17.9994,5.9995 C17.9994,5.6325 17.9774,5.2665 17.9444,4.9015 L18.2944,5.2515 C18.6834,5.6405 19.3194,5.6405 19.7084,5.2515 C20.0974,4.8625 20.0974,4.2265 19.7084,3.8375" id="Fill-5" fill="#c2c2c2" mask="url(#mask-2)"></path>
                                </g>
                                <path d="M9.0004,9.1998 L9.0004,9.0608 C9.0004,8.5498 9.4184,8.1308 9.9314,8.1308 L18.0684,8.1308 C18.5814,8.1308 19.0004,8.5498 19.0004,9.0608 L19.0004,9.1998 C19.0004,9.7118 18.5814,10.1308 18.0684,10.1308 L9.9314,10.1308 C9.4184,10.1308 9.0004,9.7118 9.0004,9.1998" id="Fill-7" fill="#c2c2c2"></path>
                                <path d="M9.0004,13.5426 L9.0004,13.4036 C9.0004,12.8926 9.4184,12.4736 9.9314,12.4736 L16.0684,12.4736 C16.5814,12.4736 17.0004,12.8926 17.0004,13.4036 L17.0004,13.5426 C17.0004,14.0546 16.5814,14.4736 16.0684,14.4736 L9.9314,14.4736 C9.4184,14.4736 9.0004,14.0546 9.0004,13.5426" id="Fill-9" fill="#c2c2c2"></path>
                            </g>
                        </g>
                    </g>
                </g>
            </g>
        </g>
    </g>
</svg>