<?xml version="1.0" encoding="UTF-8"?>
<svg width="29px" height="28px" viewBox="0 0 29 28" version="1.1" xmlns="http://www.w3.org/2000/svg" xmlns:xlink="http://www.w3.org/1999/xlink">
    <!-- Generator: Sketch 63 (92445) - https://sketch.com -->
    <title>分片结果文件上传-点击前状态</title>
    <desc>Created with Sketch.</desc>
    <g id="后台设计" stroke="none" stroke-width="1" fill="none" fill-rule="evenodd">
        <g id="联机服务调度-各种图标状态" transform="translate(-904.000000, -391.000000)">
            <g id="编组-8" transform="translate(290.000000, 358.000000)">
                <g id="分片结果文件上传-加载失败状态备份-5" transform="translate(570.800000, 33.000000)">
                    <g id="分片结果文件上传-加载失败状态">
                        <g id="分片结果文件上传-点击前状态-2" transform="translate(44.000000, 0.000000)">
                            <g id="分片结果文件上传-点击前状态">
                                <rect id="矩形" fill="#EAEFFF" x="5" y="4" width="19" height="21"></rect>
                                <g id="编组" transform="translate(4.000000, 2.000000)" fill="#f7b500">
                                    <path d="M10.151,6.3621 L6.551,9.9611 C6.178,10.3341 6.178,10.9381 6.551,11.3111 L6.615,11.3751 C6.988,11.7481 7.593,11.7481 7.966,11.3751 L9.826,9.5151 L9.826,17.1001 C9.826,17.6531 10.274,18.1001 10.826,18.1001 C11.379,18.1001 11.826,17.6531 11.826,17.1001 L11.826,9.5141 L13.655,11.3431 C14.045,11.7341 14.678,11.7341 15.069,11.3431 C15.46,10.9531 15.46,10.3201 15.069,9.9291 L11.565,6.4251 L11.533,6.3931 L11.502,6.3621 C11.129,5.9891 10.524,5.9891 10.151,6.3621" id="Fill-3"></path>
                                    <path d="M16.9996,-0.0002 L2.9996,-0.0002 C1.3456,-0.0002 -0.0004,1.3458 -0.0004,2.9998 L-0.0004,20.9998 C-0.0004,22.6538 1.3456,23.9998 2.9996,23.9998 L16.9996,23.9998 C18.6536,23.9998 19.9996,22.6538 19.9996,20.9998 L19.9996,18.3698 L19.9916,18.3698 C19.9696,17.8368 19.5376,17.4098 18.9996,17.4098 C18.4626,17.4098 18.0306,17.8368 18.0086,18.3698 L17.9996,18.3698 L17.9996,20.9998 C17.9996,21.5518 17.5516,21.9998 16.9996,21.9998 L2.9996,21.9998 C2.4476,21.9998 1.9996,21.5518 1.9996,20.9998 L1.9996,2.9998 C1.9996,2.4478 2.4476,1.9998 2.9996,1.9998 L16.9996,1.9998 C17.5516,1.9998 17.9996,2.4478 17.9996,2.9998 L17.9996,9.3318 L18.0026,9.3318 C18.0096,9.8788 18.4516,10.3198 18.9996,10.3198 C19.5486,10.3198 19.9906,9.8788 19.9976,9.3318 L19.9996,9.3318 L19.9996,2.9998 C19.9996,1.3458 18.6536,-0.0002 16.9996,-0.0002" id="Fill-5"></path>
                                </g>
                            </g>
                        </g>
                    </g>
                </g>
            </g>
        </g>
    </g>
</svg>