<?xml version="1.0" encoding="UTF-8"?>
<svg width="28px" height="28px" viewBox="0 0 28 28" version="1.1" xmlns="http://www.w3.org/2000/svg" xmlns:xlink="http://www.w3.org/1999/xlink">
    <!-- Generator: Sketch 63 (92445) - https://sketch.com -->
    <title>分片文件解析入库-点击前状态</title>
    <desc>Created with Sketch.</desc>
    <g id="后台设计" stroke="none" stroke-width="1" fill="none" fill-rule="evenodd">
        <g id="联机服务调度-各种图标状态" transform="translate(-459.000000, -391.000000)">
            <g id="编组-8" transform="translate(290.000000, 358.000000)">
                <g id="编组-9备份-4" transform="translate(125.000000, 33.000000)">
                    <g id="编组-7" transform="translate(44.000000, 0.000000)">
                        <g id="-mockplus-">
                            <g id="分片文件解析入库-点击前状态">
                                <g id="编组">
                                    <g transform="translate(3.000000, 3.000000)">
                                        <rect id="矩形" fill="#EAEFFF" x="0" y="0" width="22" height="22" rx="4"></rect>
                                        <path d="M18,0 C20.209139,0 22,1.790861 22,4 L22,18 C22,20.209139 20.209139,22 18,22 L4,22 C1.790861,22 0,20.209139 0,18 L0,4 C0,1.790861 1.790861,0 4,0 L18,0 Z M18,2 L4,2 C2.9456382,2 2.08183488,2.81587779 2.00548574,3.85073766 L2,4 L2,18 C2,19.0543618 2.81587779,19.9181651 3.85073766,19.9945143 L4,20 L18,20 C19.0543618,20 19.9181651,19.1841222 19.9945143,18.1492623 L20,18 L20,4 C20,2.9456382 19.1841222,2.08183488 18.1492623,2.00548574 L18,2 Z" id="矩形" fill="#6236ff" fill-rule="nonzero"></path>
                                        <path d="M9.74689674,7.48345049 C10.1850289,6.75718159 11.2520518,6.87996642 11.5374091,7.64193113 L11.5727046,7.75510873 L12.66,12.064 L13.0983661,11.1454992 C13.2431451,10.8413234 13.5297102,10.6331301 13.8577285,10.5856106 L13.9824826,10.5754487 L17.9811793,10.5001771 C18.5333662,10.4897827 18.9894285,10.9289924 18.9998229,11.4811793 C19.0094748,11.9939243 18.631458,12.4237863 18.1352946,12.4909014 L18.0188207,12.4998229 L14.638,12.563 L13.2741671,15.4297725 C12.8890469,16.2388968 11.7373825,16.1620191 11.4371856,15.3588947 L11.4016793,15.2448913 L10.22,10.569 L9.3025775,12.0918211 C9.14419953,12.3543561 8.87569259,12.5275966 8.57629411,12.5668047 L8.44632018,12.5752716 L5,12.5752716 C4.44771525,12.5752716 4,12.1275564 4,11.5752716 C4,11.0624358 4.38604019,10.6397645 4.88337887,10.5819994 L5,10.5752716 L7.881,10.575 L9.74689674,7.48345049 Z" id="路径-4" fill="#6236ff" fill-rule="nonzero"></path>
                                    </g>
                                </g>
                            </g>
                        </g>
                    </g>
                </g>
            </g>
        </g>
    </g>
</svg>