<?xml version="1.0" encoding="UTF-8"?>
<svg width="29px" height="28px" viewBox="0 0 29 28" version="1.1" xmlns="http://www.w3.org/2000/svg" xmlns:xlink="http://www.w3.org/1999/xlink">
    <!-- Generator: Sketch 63 (92445) - https://sketch.com -->
    <title>结果文件生成-点击前状态</title>
    <desc>Created with Sketch.</desc>
    <g id="后台设计" stroke="none" stroke-width="1" fill="none" fill-rule="evenodd">
        <g id="联机服务调度-各种图标状态" transform="translate(-750.000000, -391.000000)">
            <g id="编组-8" transform="translate(290.000000, 358.000000)">
                <g id="结果文件生成-加载失败状态备份-4" transform="translate(417.600000, 33.000000)">
                    <g id="结果文件生成-点击前状态-2" transform="translate(43.000000, 0.000000)">
                        <g id="结果文件生成-点击前状态">
                            <g id="编组" transform="translate(3.000000, 2.000000)">
                                <polygon id="路径-3" fill="#EAEFFF" points="1.72974629 -0.0033 1.72974629 21.8920606 3.31290919 23 14.2752095 23 21.7884 15.3641283 21.7884 -0.0033"></polygon>
                                <path d="M5.7084,16.9781 C5.1814,16.9781 4.7534,17.4061 4.7534,17.9331 L4.7534,18.0221 C4.7534,18.5501 5.1814,18.9781 5.7084,18.9781 L10.7984,18.9781 C11.3254,18.9781 11.7534,18.5501 11.7534,18.0221 L11.7534,17.9331 C11.7534,17.4061 11.3254,16.9781 10.7984,16.9781 L5.7084,16.9781 Z" id="Fill-3" fill="#e02020"></path>
                                <path d="M13.7533,13.6656 L13.7533,13.5756 C13.7533,13.0486 13.3253,12.6206 12.7983,12.6206 L5.7083,12.6206 C5.1813,12.6206 4.7533,13.0486 4.7533,13.5756 L4.7533,13.6656 C4.7533,14.1926 5.1813,14.6206 5.7083,14.6206 L12.7983,14.6206 C13.3253,14.6206 13.7533,14.1926 13.7533,13.6656" id="Fill-5" fill="#e02020"></path>
                                <path d="M20.8334,-0.0033 L15.7444,-0.0033 C15.2164,-0.0033 14.7884,0.4247 14.7884,0.9517 L14.7884,1.0417 C14.7884,1.5687 15.2164,1.9967 15.7444,1.9967 L18.3744,1.9967 L13.0114,7.3597 C12.6204,7.7507 12.6204,8.3847 13.0114,8.7747 C13.4004,9.1657 14.0344,9.1657 14.4254,8.7747 L19.7884,3.4107 L19.7884,5.9967 C19.7884,6.5487 20.2364,6.9967 20.7884,6.9967 C21.3414,6.9967 21.7884,6.5487 21.7884,5.9967 L21.7884,1.0417 L21.7884,0.9967 L21.7884,0.9517 C21.7884,0.4247 21.3604,-0.0033 20.8334,-0.0033" id="Fill-7" fill="#e02020"></path>
                                <path d="M20.7884,10.1207 C20.2364,10.1207 19.7884,10.5687 19.7884,11.1207 L19.7884,15.7957 L13.5884,21.9967 L4.7534,21.9967 L4.7534,22.0037 L3.3544,22.0037 C2.7244,22.0037 2.2114,21.4637 2.2114,20.7997 L2.2114,3.2007 C2.2114,2.5367 2.7244,1.9957 3.3544,1.9957 L10.9874,1.9957 C11.5404,1.9957 11.9874,1.5487 11.9874,0.9957 C11.9874,0.4427 11.5404,-0.0043 10.9874,-0.0043 L3.3544,-0.0043 C1.6214,-0.0043 0.2114,1.4327 0.2114,3.2007 L0.2114,20.7997 C0.2114,22.5657 1.6214,24.0037 3.3544,24.0037 L13.7964,24.0037 C13.8414,24.0037 13.8804,23.9837 13.9244,23.9777 C14.2064,24.0017 14.4954,23.9177 14.7124,23.7007 L21.4954,16.9177 C21.7024,16.7107 21.7924,16.4357 21.7794,16.1647 C21.7804,16.1487 21.7884,16.1367 21.7884,16.1207 L21.7884,11.1207 C21.7884,10.5687 21.3414,10.1207 20.7884,10.1207" id="Fill-9" fill="#e02020"></path>
                            </g>
                        </g>
                    </g>
                </g>
            </g>
        </g>
    </g>
</svg>