<?xml version="1.0" encoding="UTF-8"?>
<svg width="28px" height="28px" viewBox="0 0 28 28" version="1.1" xmlns="http://www.w3.org/2000/svg" xmlns:xlink="http://www.w3.org/1999/xlink">
    <!-- Generator: Sketch 63 (92445) - https://sketch.com -->
    <title>分片文件下载-点击前状态备份 4</title>
    <desc>Created with Sketch.</desc>
    <g id="后台设计" stroke="none" stroke-width="1" fill="none" fill-rule="evenodd">
        <g id="联机服务调度-各种图标状态" transform="translate(-320.000000, -391.000000)">
            <g id="编组-8" transform="translate(290.000000, 358.000000)">
                <g id="分片文件下载-加载失败状态备份-4" transform="translate(30.000000, 33.000000)">
                    <g id="编组-16">
                        <rect id="矩形" fill="#EAEFFF" x="4" y="3" width="19" height="22"></rect>
                        <g id="编组-12" transform="translate(3.500000, 2.000000)" fill="#e02020" fill-rule="nonzero">
                            <path d="M17.7171429,0 C19.2897173,0 20.5751748,1.19896317 20.6649873,2.71077812 L20.67,2.88 L20.67,21.12 C20.67,22.6537736 19.4407059,23.9075144 17.8906456,23.995111 L17.7171429,24 L2.95285714,24 C1.38028267,24 0.0948252201,22.8010368 0.00501266537,21.2892219 L4.61852778e-13,21.12 L4.61852778e-13,2.88 C4.61852778e-13,1.34622635 1.22929408,0.0924855557 2.77935436,0.00488898568 L2.95285714,0 L17.7171429,0 Z M10.2925294,9.59673778 L10.1287533,9.66722066 L6.93181676,11.2068004 C6.44621076,11.4406583 5.88695314,11.456145 5.39266336,11.2554045 L5.23049647,11.1804855 L1.968,9.483 L1.96857143,21.12 C1.96857143,21.6123224 2.34854527,22.0180869 2.83806864,22.0735414 L2.95285714,22.08 L17.7171429,22.08 C18.2219198,22.08 18.6379492,21.7094014 18.6948066,21.2319563 L18.7014286,21.12 L18.701,10.313 L16.3198058,11.2064289 C15.8747929,11.3733036 15.3855882,11.3666412 14.9481215,11.1919398 L14.7866841,11.1185606 L11.9970805,9.69007044 C11.465354,9.41778585 10.8456278,9.38604459 10.2925294,9.59673778 Z M14.8475685,12.9907837 C15.3446248,12.9907837 15.7475685,13.3937274 15.7475685,13.8907837 L15.7476615,18.9467837 L16.4752654,18.219046 C16.8267372,17.8675742 17.3965857,17.8675742 17.7480576,18.219046 C18.0995294,18.5705179 18.0995294,19.1403664 17.7480576,19.4918382 L15.4853159,21.7545799 C15.133844,22.1060518 14.5639955,22.1060518 14.2125237,21.7545799 L14.1836357,21.7229213 C14.1442028,21.6946283 14.1065424,21.6627617 14.0711023,21.6273216 L11.8083606,19.3645799 C11.4568887,19.0131081 11.4568887,18.4432596 11.8083606,18.0917877 C12.1598325,17.7403159 12.7296809,17.7403159 13.0811528,18.0917877 L13.9476615,18.9577837 L13.9475685,13.8907837 C13.9475685,13.3937274 14.3505122,12.9907837 14.8475685,12.9907837 Z M17.7171429,1.92 L2.95285714,1.92 C2.44808015,1.92 2.03205081,2.29059858 1.97519344,2.76804372 L1.96857143,2.88 L1.968,7.454 L6.0612762,9.58367461 C6.07991718,9.59337304 6.10087914,9.59683396 6.12119679,9.59401152 L6.15081937,9.58505961 L9.34775595,8.04547991 C10.3739746,7.55127384 11.5608864,7.53200607 12.5977348,7.98387603 L12.8175064,8.08791522 L15.60711,9.51640539 C15.6238087,9.52495639 15.6423941,9.5285529 15.6607362,9.52707283 L15.6878006,9.52103004 L18.701,8.391 L18.7014286,2.88 C18.7014286,2.38767759 18.3214547,1.98191313 17.8319314,1.92645862 L17.7171429,1.92 Z M11,4.01217651 C11.5522847,4.01217651 12,4.45989176 12,5.01217651 C12,5.56446126 11.5522847,6.01217651 11,6.01217651 L5,6.01217651 C4.44771525,6.01217651 4,5.56446126 4,5.01217651 C4,4.45989176 4.44771525,4.01217651 5,4.01217651 L11,4.01217651 Z" id="形状结合"></path>
                        </g>
                    </g>
                </g>
            </g>
        </g>
    </g>
</svg>