<?xml version="1.0" encoding="UTF-8"?>
<svg width="699px" height="683px" viewBox="0 0 699 683" version="1.1" xmlns="http://www.w3.org/2000/svg" xmlns:xlink="http://www.w3.org/1999/xlink">
    <!-- Generator: Sketch 63 (92445) - https://sketch.com -->
    <title>首页展示图</title>
    <desc>Created with Sketch.</desc>
    <defs>
        <filter x="-20.5%" y="-20.5%" width="141.0%" height="141.0%" filterUnits="objectBoundingBox" id="filter-1">
            <feGaussianBlur stdDeviation="37" in="SourceGraphic"></feGaussianBlur>
        </filter>
    </defs>
    <g id="后台设计" stroke="none" stroke-width="1" fill="none" fill-rule="evenodd">
        <g id="首页" transform="translate(-656.000000, -85.000000)">
            <g id="编组-45" transform="translate(656.000000, 85.000000)">
                <g id="首页展示图-2">
                    <g id="首页展示图" transform="translate(8.000000, 0.000000)">
                        <circle id="椭圆形" stroke-opacity="0.486724213" stroke="#FFFFFF" stroke-width="10" cx="341.5" cy="341.5" r="336.5"></circle>
                        <circle id="椭圆形" fill-opacity="0.2" fill="#6662FF" filter="url(#filter-1)" cx="341.5" cy="369.5" r="270.5"></circle>
                        <circle id="椭圆形" fill="#FFFFFF" cx="341.5" cy="347.5" r="270.5"></circle>
                        <g id="编组" transform="translate(91.000000, 97.000000)" fill="#DEDAFF">
                            <polygon id="Fill-1" points="248 40 249 40 249 0 248 0"></polygon>
                            <polygon id="Fill-2" points="239 0.0466402372 240.02346 40 241 39.9533598 239.97654 0"></polygon>
                            <polygon id="Fill-3" points="231 0.0920092009 234.385113 40 236 39.9053239 232.61165 0"></polygon>
                            <polygon id="Fill-4" points="228 40.8610508 226.555932 41 222 1.14028525 223.444068 1"></polygon>
                            <polygon id="Fill-5" points="220 40.8183737 218.658537 41 213 2.18162629 214.341463 2"></polygon>
                            <polygon id="Fill-6" points="212 43.7729659 210.727801 44 204 5.22834646 205.270907 5"></polygon>
                            <polygon id="Fill-7" points="206 44.7255008 204.778963 45 197 6.27449919 198.221037 6"></polygon>
                            <polygon id="Fill-8" points="199 45.6784327 197.702029 46 188 7.3202385 189.297971 7"></polygon>
                            <polygon id="Fill-9" points="192 47.6316079 190.750596 48 180 9.36973173 181.249404 9"></polygon>
                            <polygon id="Fill-10" points="185 50.5928713 183.697515 51 171 13.4071287 172.302485 13"></polygon>
                            <polygon id="Fill-11" points="178 53.5445274 176.742411 54 163 16.4554726 164.257589 16"></polygon>
                            <polygon id="Fill-12" points="171 56.4945016 169.780764 57 155 19.5054984 156.219236 19"></polygon>
                            <polygon id="Fill-13" points="164 58.4585625 162.746931 59 146 22.5401071 147.253069 22"></polygon>
                            <polygon id="Fill-14" points="158 62.4085833 156.785623 63 139 26.592767 140.21573 26"></polygon>
                            <polygon id="Fill-15" points="152 65.3736692 150.820071 66 132 30.6249954 133.179929 30"></polygon>
                            <polygon id="Fill-16" points="145 69.3202417 143.853775 70 124 34.6797583 125.146225 34"></polygon>
                            <polygon id="Fill-17" points="138 72.2870894 136.885876 73 116 38.7142582 117.114124 38"></polygon>
                            <polygon id="Fill-18" points="133 76.2513075 131.869867 77 109 43.7473556 110.130133 43"></polygon>
                            <polygon id="Fill-19" points="127 80.1957842 125.902022 81 102 47.8042158 103.096622 47"></polygon>
                            <polygon id="Fill-20" points="121 86.1632998 119.93613 87 95 54.8394212 96.0638696 54"></polygon>
                            <polygon id="Fill-21" points="116 90.1562394 114.968479 91 89 60.8424484 90.0328678 60"></polygon>
                            <polygon id="Fill-22" points="109 95.0968515 108.000576 96 81 65.9031485 81.9994235 65"></polygon>
                            <polygon id="Fill-23" points="104 100.065278 103.03154 101 75 71.9347221 75.9684601 71"></polygon>
                            <polygon id="Fill-24" points="99 105.03154 98.0639731 106 69 77.9684601 69.9360269 77"></polygon>
                            <polygon id="Fill-25" points="94 110.000576 93.0968908 111 63 83.9994235 63.9044592 83"></polygon>
                            <polygon id="Fill-26" points="88 116.968479 87.1549272 118 57 92.0315212 57.8437606 91"></polygon>
                            <polygon id="Fill-27" points="86 120.93613 85.1632998 122 53 97.0638696 53.8380607 96"></polygon>
                            <polygon id="Fill-28" points="80 126.902082 79.1957519 128 46 104.097918 46.8028804 103"></polygon>
                            <polygon id="Fill-29" points="75 133.869802 74.252615 135 41 112.130198 41.747385 111"></polygon>
                            <polygon id="Fill-30" points="72 138.884629 71.2857693 140 37 119.114057 37.7155783 118"></polygon>
                            <polygon id="Fill-31" points="69 145.853775 68.3202417 147 33 127.146225 33.6797583 126"></polygon>
                            <polygon id="Fill-32" points="64 152.818813 63.372357 154 28 135.17985 28.627643 134"></polygon>
                            <polygon id="Fill-33" points="62 159.785536 61.409912 161 25 143.214464 25.590088 142"></polygon>
                            <polygon id="Fill-34" points="58 164.746931 57.4585625 166 21 149.253069 21.5401071 148"></polygon>
                            <polygon id="Fill-35" points="56 171.780764 55.4958317 173 18 158.21792 18.5041683 157"></polygon>
                            <polygon id="Fill-36" points="53 178.741184 52.5431956 180 15 166.260155 15.4554726 165"></polygon>
                            <polygon id="Fill-37" points="49 185.697515 48.5928713 187 11 174.303854 11.4084463 173"></polygon>
                            <polygon id="Fill-38" points="48 192.750731 47.6316079 194 9 183.249269 9.36839213 182"></polygon>
                            <polygon id="Fill-39" points="46 200.701872 45.6797724 202 7 192.296791 7.32288508 191"></polygon>
                            <polygon id="Fill-40" points="44 206.780042 43.7255101 208 5 200.218711 5.2744899 199"></polygon>
                            <polygon id="Fill-41" points="43 214.727801 42.7716535 216 4 209.270907 4.22703412 208"></polygon>
                            <polygon id="Fill-42" points="41 222.658537 40.8183737 224 2 218.341463 2.18162629 217"></polygon>
                            <polygon id="Fill-43" points="1 225.444068 40.8610508 230 41 228.554479 1.1389492 224"></polygon>
                            <polygon id="Fill-44" points="0 234.613269 39.905327 238 40 236.385113 0.0920061337 233"></polygon>
                            <polygon id="Fill-45" points="0 243.976063 39.9533598 245 40 244.023937 0.045307659 243"></polygon>
                            <polygon id="Fill-46" points="0 253 40 253 40 252 0 252"></polygon>
                            <polygon id="Fill-47" points="0 261.02346 0.0466402372 262 40 260.97654 39.9533598 260"></polygon>
                            <polygon id="Fill-48" points="0 268.387828 0.0920092009 270 40 266.613791 39.9066573 265"></polygon>
                            <polygon id="Fill-49" points="40.8610508 273 41 274.444068 1.14028525 279 1 277.555932"></polygon>
                            <polygon id="Fill-50" points="40.8183737 281 41 282.341463 2.18162629 288 2 286.658537"></polygon>
                            <polygon id="Fill-51" points="43.7729659 289 44 290.272199 5.22834646 297 5 295.729093"></polygon>
                            <polygon id="Fill-52" points="44.7255008 295 45 296.221037 6.27449919 304 6 302.778963"></polygon>
                            <polygon id="Fill-53" points="45.6784327 302 46 303.297971 7.3202385 313 7 311.702029"></polygon>
                            <polygon id="Fill-54" points="47.6316079 309 48 310.249404 9.36973173 321 9 319.750596"></polygon>
                            <polygon id="Fill-55" points="50.5928713 316 51 317.302485 13.4071287 330 13 328.697515"></polygon>
                            <polygon id="Fill-56" points="53.5445274 323 54 324.257589 16.4554726 338 16 336.742411"></polygon>
                            <polygon id="Fill-57" points="56.4945016 330 57 331.219236 19.5054984 346 19 344.780764"></polygon>
                            <polygon id="Fill-58" points="58.4585625 337 59 338.253069 22.5401071 355 22 353.746931"></polygon>
                            <polygon id="Fill-59" points="62.4085833 343 63 344.214377 26.592767 362 26 360.78427"></polygon>
                            <polygon id="Fill-60" points="65.3736692 349 66 350.179929 30.6249954 369 30 367.820071"></polygon>
                            <polygon id="Fill-61" points="69.3202417 356 70 357.146225 34.6797583 377 34 375.853775"></polygon>
                            <polygon id="Fill-62" points="72.2870894 363 73 364.114124 38.7142582 385 38 383.885876"></polygon>
                            <polygon id="Fill-63" points="76.2513075 368 77 369.130133 43.7473556 392 43 390.869867"></polygon>
                            <polygon id="Fill-64" points="80.1957842 374 81 375.097978 47.8042158 399 47 397.903378"></polygon>
                            <polygon id="Fill-65" points="86.1632998 380 87 381.06387 54.8394212 406 54 404.93613"></polygon>
                            <polygon id="Fill-66" points="90.1562394 385 91 386.031521 60.8424484 412 60 410.967132"></polygon>
                            <polygon id="Fill-67" points="95.0968515 392 96 392.999424 65.9031485 420 65 419.000576"></polygon>
                            <polygon id="Fill-68" points="100.065278 397 101 397.96846 71.9347221 426 71 425.03154"></polygon>
                            <polygon id="Fill-69" points="105.03154 402 106 402.936027 77.9684601 432 77 431.063973"></polygon>
                            <polygon id="Fill-70" points="110.000576 407 111 407.903109 83.9994235 438 83 437.095541"></polygon>
                            <polygon id="Fill-71" points="116.968479 413 118 413.845073 92.0315212 444 91 443.156239"></polygon>
                            <polygon id="Fill-72" points="120.93613 415 122 415.8367 97.0638696 448 96 447.161939"></polygon>
                            <polygon id="Fill-73" points="126.902082 421 128 421.804248 104.097918 455 103 454.19712"></polygon>
                            <polygon id="Fill-74" points="133.869802 426 135 426.747385 112.130198 460 111 459.252615"></polygon>
                            <polygon id="Fill-75" points="138.884629 429 140 429.714231 119.114057 464 118 463.284422"></polygon>
                            <polygon id="Fill-76" points="145.853775 432 147 432.679758 127.146225 468 126 467.320242"></polygon>
                            <polygon id="Fill-77" points="152.818813 437 154 437.627643 135.17985 473 134 472.372357"></polygon>
                            <polygon id="Fill-78" points="159.785536 439 161 439.590088 143.214464 476 142 475.409912"></polygon>
                            <polygon id="Fill-79" points="164.746931 443 166 443.541437 149.253069 480 148 479.459893"></polygon>
                            <polygon id="Fill-80" points="171.780764 445 173 445.504168 158.21792 483 157 482.495832"></polygon>
                            <polygon id="Fill-81" points="178.741184 448 180 448.456804 166.260155 486 165 485.544527"></polygon>
                            <polygon id="Fill-82" points="185.697515 452 187 452.407129 174.303854 490 173 489.591554"></polygon>
                            <polygon id="Fill-83" points="192.750731 453 194 453.368392 183.249269 492 182 491.631608"></polygon>
                            <polygon id="Fill-84" points="200.701872 455 202 455.320228 192.296791 494 191 493.677115"></polygon>
                            <polygon id="Fill-85" points="206.780042 457 208 457.27449 200.218711 496 199 495.72551"></polygon>
                            <polygon id="Fill-86" points="214.727801 458 216 458.228346 209.270907 497 208 496.772966"></polygon>
                            <polygon id="Fill-87" points="222.658537 460 224 460.181626 218.341463 499 217 498.818374"></polygon>
                            <polygon id="Fill-88" points="224 499.861051 225.445521 500 230 460.138949 228.557385 460"></polygon>
                            <polygon id="Fill-89" points="233 500.907994 234.612747 501 238 461.096006 236.385636 461"></polygon>
                            <polygon id="Fill-90" points="243 500.954692 243.97654 501 245 461.04664 244.02346 461"></polygon>
                            <polygon id="Fill-91" points="252 501 253 501 253 461 252 461"></polygon>
                            <polygon id="Fill-92" points="260 461.04664 261.02346 501 262 500.95336 260.97654 461"></polygon>
                            <polygon id="Fill-93" points="265 461.093343 268.386731 501 270 500.906657 266.613269 461"></polygon>
                            <polygon id="Fill-94" points="273 460.138949 274.444068 460 279 499.859715 277.555932 500"></polygon>
                            <polygon id="Fill-95" points="281 460.181626 282.341463 460 288 498.818374 286.658537 499"></polygon>
                            <polygon id="Fill-96" points="289 457.227034 290.272199 457 297 495.771654 295.729093 496"></polygon>
                            <polygon id="Fill-97" points="295 456.274499 296.221037 456 304 494.725501 302.778963 495"></polygon>
                            <polygon id="Fill-98" points="302 455.321567 303.297971 455 313 493.679761 311.702029 494"></polygon>
                            <polygon id="Fill-99" points="309 453.368392 310.249404 453 321 491.630268 319.750596 492"></polygon>
                            <polygon id="Fill-100" points="316 450.407129 317.302485 450 330 487.592871 328.697515 488"></polygon>
                            <polygon id="Fill-101" points="323 447.455473 324.257589 447 338 484.544527 336.742411 485"></polygon>
                            <polygon id="Fill-102" points="330 444.505498 331.219236 444 346 481.494502 344.780764 482"></polygon>
                            <polygon id="Fill-103" points="337 442.541437 338.253069 442 355 478.459893 353.746931 479"></polygon>
                            <polygon id="Fill-104" points="343 438.591417 344.214377 438 362 474.407233 360.78427 475"></polygon>
                            <polygon id="Fill-105" points="349 435.626331 350.179929 435 369 470.375005 367.820071 471"></polygon>
                            <polygon id="Fill-106" points="356 431.679758 357.146225 431 377 466.320242 375.853775 467"></polygon>
                            <polygon id="Fill-107" points="363 428.712911 364.114124 428 385 462.285742 383.885876 463"></polygon>
                            <polygon id="Fill-108" points="368 424.748693 369.130133 424 392 457.252644 390.869867 458"></polygon>
                            <polygon id="Fill-109" points="374 420.804216 375.097978 420 399 453.195784 397.903378 454"></polygon>
                            <polygon id="Fill-110" points="380 414.8367 381.06387 414 406 446.160579 404.93613 447"></polygon>
                            <polygon id="Fill-111" points="385 410.843761 386.031521 410 412 440.157552 410.967132 441"></polygon>
                            <polygon id="Fill-112" points="392 405.903149 392.999424 405 420 435.096851 419.000576 436"></polygon>
                            <polygon id="Fill-113" points="397 400.934722 397.96846 400 426 429.065278 425.03154 430"></polygon>
                            <polygon id="Fill-114" points="402 395.96846 402.936027 395 432 423.03154 431.063973 424"></polygon>
                            <polygon id="Fill-115" points="407 390.999424 407.903109 390 438 417.000576 437.095541 418"></polygon>
                            <polygon id="Fill-116" points="413 384.031521 413.845073 383 444 408.968479 443.156239 410"></polygon>
                            <polygon id="Fill-117" points="415 380.06387 415.8367 379 448 403.93613 447.161939 405"></polygon>
                            <polygon id="Fill-118" points="421 374.097918 421.804248 373 455 396.902082 454.19712 398"></polygon>
                            <polygon id="Fill-119" points="426 367.130198 426.747385 366 460 388.869802 459.252615 390"></polygon>
                            <polygon id="Fill-120" points="429 362.115371 429.714231 361 464 381.885943 463.284422 383"></polygon>
                            <polygon id="Fill-121" points="432 355.146225 432.679758 354 468 373.853775 467.320242 375"></polygon>
                            <polygon id="Fill-122" points="437 348.181187 437.627643 347 473 365.82015 472.372357 367"></polygon>
                            <polygon id="Fill-123" points="439 341.214464 439.590088 340 476 357.785536 475.409912 359"></polygon>
                            <polygon id="Fill-124" points="443 336.253069 443.541437 335 480 351.746931 479.459893 353"></polygon>
                            <polygon id="Fill-125" points="445 329.219236 445.504168 328 483 342.78208 482.495832 344"></polygon>
                            <polygon id="Fill-126" points="448 322.258816 448.456804 321 486 334.739845 485.544527 336"></polygon>
                            <polygon id="Fill-127" points="452 315.302485 452.407129 314 490 326.696146 489.591554 328"></polygon>
                            <polygon id="Fill-128" points="453 308.249269 453.368392 307 492 317.750731 491.631608 319"></polygon>
                            <polygon id="Fill-129" points="455 300.298128 455.320228 299 494 308.703209 493.677115 310"></polygon>
                            <polygon id="Fill-130" points="457 294.219958 457.27449 293 496 300.781289 495.72551 302"></polygon>
                            <polygon id="Fill-131" points="458 286.272199 458.228346 285 497 291.729093 496.772966 293"></polygon>
                            <polygon id="Fill-132" points="460 278.341463 460.181626 277 499 282.658537 498.818374 284"></polygon>
                            <polygon id="Fill-133" points="460 272.443718 499.861051 277 500 275.554829 460.138949 271"></polygon>
                            <polygon id="Fill-134" points="461 264.613269 500.907991 268 501 266.386731 461.093343 263"></polygon>
                            <polygon id="Fill-135" points="461 256.97654 500.954692 258 501 257.02346 461.04664 256"></polygon>
                            <polygon id="Fill-136" points="461 249 501 249 501 248 461 248"></polygon>
                            <polygon id="Fill-137" points="461 240.02346 461.04664 241 501 239.97654 500.95336 239"></polygon>
                            <polygon id="Fill-138" points="461 234.386209 461.093343 236 501 232.613791 500.907991 231"></polygon>
                            <polygon id="Fill-139" points="460.138949 228 460 226.555932 499.859715 222 500 223.444068"></polygon>
                            <polygon id="Fill-140" points="460.181626 220 460 218.658537 498.818374 213 499 214.341463"></polygon>
                            <polygon id="Fill-141" points="457.227034 212 457 210.727801 495.771654 204 496 205.270907"></polygon>
                            <polygon id="Fill-142" points="456.274499 206 456 204.778963 494.725501 197 495 198.221037"></polygon>
                            <polygon id="Fill-143" points="455.321567 199 455 197.702029 493.679761 188 494 189.297971"></polygon>
                            <polygon id="Fill-144" points="453.368392 192 453 190.750596 491.630268 180 492 181.249404"></polygon>
                            <polygon id="Fill-145" points="450.407129 185 450 183.697515 487.592871 171 488 172.302485"></polygon>
                            <polygon id="Fill-146" points="447.455473 178 447 176.742411 484.544527 163 485 164.257589"></polygon>
                            <polygon id="Fill-147" points="444.505498 171 444 169.780764 481.494502 155 482 156.219236"></polygon>
                            <polygon id="Fill-148" points="442.541437 164 442 162.746931 478.459893 146 479 147.253069"></polygon>
                            <polygon id="Fill-149" points="438.591417 158 438 156.785623 474.407233 139 475 140.21573"></polygon>
                            <polygon id="Fill-150" points="435.626331 152 435 150.820071 470.375005 132 471 133.179929"></polygon>
                            <polygon id="Fill-151" points="431.679758 145 431 143.853775 466.320242 124 467 125.146225"></polygon>
                            <polygon id="Fill-152" points="428.712911 138 428 136.885876 462.285742 116 463 117.114124"></polygon>
                            <polygon id="Fill-153" points="424.748693 133 424 131.869867 457.252644 109 458 110.130133"></polygon>
                            <polygon id="Fill-154" points="420.804216 127 420 125.902022 453.195784 102 454 103.096622"></polygon>
                            <polygon id="Fill-155" points="414.8367 121 414 119.93613 446.160579 95 447 96.0638696"></polygon>
                            <polygon id="Fill-156" points="410.843761 116 410 114.968479 440.157552 89 441 90.0328678"></polygon>
                            <polygon id="Fill-157" points="405.903149 109 405 108.000576 435.096851 81 436 81.9994235"></polygon>
                            <polygon id="Fill-158" points="400.934722 104 400 103.03154 429.065278 75 430 75.9684601"></polygon>
                            <polygon id="Fill-159" points="395.96846 99 395 98.0639731 423.03154 69 424 69.9360269"></polygon>
                            <polygon id="Fill-160" points="390.999424 94 390 93.0968908 417.000576 63 418 63.9044592"></polygon>
                            <polygon id="Fill-161" points="384.031521 88 383 87.1549272 408.968479 57 410 57.8437606"></polygon>
                            <polygon id="Fill-162" points="380.06387 86 379 85.1632998 403.93613 53 405 53.8380607"></polygon>
                            <polygon id="Fill-163" points="374.097918 80 373 79.1957519 396.902082 46 398 46.8028804"></polygon>
                            <polygon id="Fill-164" points="367.130198 75 366 74.252615 388.869802 41 390 41.747385"></polygon>
                            <polygon id="Fill-165" points="362.115371 72 361 71.2857693 381.885943 37 383 37.7155783"></polygon>
                            <polygon id="Fill-166" points="355.146225 69 354 68.3202417 373.853775 33 375 33.6797583"></polygon>
                            <polygon id="Fill-167" points="348.181187 64 347 63.372357 365.82015 28 367 28.627643"></polygon>
                            <polygon id="Fill-168" points="341.214464 62 340 61.409912 357.785536 25 359 25.590088"></polygon>
                            <polygon id="Fill-169" points="336.253069 58 335 57.4585625 351.746931 21 353 21.5401071"></polygon>
                            <polygon id="Fill-170" points="329.219236 56 328 55.4958317 342.78208 18 344 18.5041683"></polygon>
                            <polygon id="Fill-171" points="322.258816 53 321 52.5431956 334.739845 15 336 15.4554726"></polygon>
                            <polygon id="Fill-172" points="315.302485 49 314 48.5928713 326.696146 11 328 11.4084463"></polygon>
                            <polygon id="Fill-173" points="308.249269 48 307 47.6316079 317.750731 9 319 9.36839213"></polygon>
                            <polygon id="Fill-174" points="300.298128 46 299 45.6797724 308.703209 7 310 7.32288508"></polygon>
                            <polygon id="Fill-175" points="294.219958 44 293 43.7255101 300.781289 5 302 5.2744899"></polygon>
                            <polygon id="Fill-176" points="286.272199 43 285 42.7716535 291.729093 4 293 4.22703412"></polygon>
                            <polygon id="Fill-177" points="278.341463 41 277 40.8183737 282.658537 2 284 2.18162629"></polygon>
                            <polygon id="Fill-178" points="271 40.8610508 272.445521 41 277 1.1389492 275.555932 1"></polygon>
                            <polygon id="Fill-179" points="263 39.9066573 264.613269 40 268 0.0933426676 266.386731 0"></polygon>
                            <polygon id="Fill-180" points="256 39.9533598 256.976063 40 258 0.045307659 257.023937 0"></polygon>
                        </g>
                        <g id="编组-51" transform="translate(161.500000, 167.500000)">
                            <g id="编组-8">
                                <circle id="椭圆形" fill="#F9FAFD" cx="180" cy="180" r="180"></circle>
                                <g id="编组-10" transform="translate(15.000000, 15.000000)">
                                    <circle id="椭圆形" stroke="#E7EDFF" stroke-width="16" cx="164.5" cy="164.5" r="156.5"></circle>
                                    <path d="M75.8022955,293.455455 C101.01227,310.828377 131.56828,321 164.5,321 C244.271113,321 310.102446,261.316712 319.775993,184.168144" id="路径" stroke="#FE3737" stroke-width="6"></path>
                                    <path d="M320.696708,174.323278 C320.897907,171.074688 321,167.799267 321,164.5 C321,113.160726 296.279292,67.5952817 258.091957,39.0577477 C256.567265,37.91834 255.021105,36.8060771 253.454194,35.7216753" id="路径" stroke="#FF891E" stroke-width="6"></path>
                                    <path d="M246.88028,31.4117724 C222.953045,16.5695862 194.727289,8 164.5,8 C78.0674367,8 8,78.0674367 8,164.5 C8,215.143123 32.054836,260.167938 69.3620591,288.771996" id="路径" stroke="#3F67ED" stroke-width="6"></path>
                                </g>
                            </g>
                            <g id="编组-35" transform="translate(75.000000, 38.000000)" fill="#FFFFFF" stroke-width="4">
                                <circle id="椭圆形" stroke="#3F67ED" cx="192.5" cy="13.5" r="11.5"></circle>
                                <circle id="椭圆形备份" stroke="#FE3737" cx="13.5" cy="267.5" r="11.5"></circle>
                                <circle id="椭圆形备份-2" stroke="#FF891E" cx="260.5" cy="155.5" r="11.5"></circle>
                            </g>
                        </g>
                    </g>
                </g>
            </g>
        </g>
    </g>
</svg>