<?xml version="1.0" encoding="UTF-8"?>
<svg width="28px" height="28px" viewBox="0 0 28 28" version="1.1" xmlns="http://www.w3.org/2000/svg" xmlns:xlink="http://www.w3.org/1999/xlink">
    <!-- Generator: Sketch 63 (92445) - https://sketch.com -->
    <title>文件拆分-点击前状态</title>
    <desc>Created with Sketch.</desc>
    <g id="后台设计" stroke="none" stroke-width="1" fill="none" fill-rule="evenodd">
        <g id="文件下载拆分-各种图标状态" transform="translate(-588.000000, -335.000000)">
            <g id="文件拆分-加载失败状态" transform="translate(573.000000, 335.000000)">
                <g transform="translate(15.000000, 0.000000)">
                    <g>
                        <g id="编组-9" transform="translate(3.000000, 3.500000)" fill="#EAEFFF">
                            <rect id="矩形" x="0" y="5.43263685" width="22" height="15.2432619" rx="2"></rect>
                            <rect id="矩形" x="0" y="-7.01660952e-14" width="12.4694176" height="8.6326737"></rect>
                        </g>
                        <g id="编组" transform="translate(2.000000, 2.000000)" fill="#f7b500">
                            <path d="M20.9431,6.6162 L5.2691,6.6162 C4.7231,6.6162 4.2801,7.0592 4.2801,7.6052 C4.2801,8.1522 4.7231,8.5952 5.2691,8.5952 L20.9431,8.5952 C21.5381,8.5952 22.0211,9.1682 22.0211,9.8732 L22.0211,20.5712 C22.0211,21.2762 21.5381,21.8492 20.9431,21.8492 L17.4551,21.8492 L6.1541,21.8492 L4.4981,21.8492 L3.7941,21.8492 C2.7931,21.8492 1.9781,20.9832 1.9781,19.9172 L1.9781,4.0832 C1.9781,3.0162 2.7931,2.1502 3.7941,2.1502 L11.6401,2.1502 C12.6411,2.1502 13.4551,3.0162 13.4551,4.0832 C13.4551,4.6302 13.8981,5.0722 14.4441,5.0722 C14.9911,5.0722 15.4341,4.6302 15.4341,4.0832 C15.4341,1.9272 13.7321,0.1722 11.6401,0.1722 L3.7941,0.1722 C1.7021,0.1722 0.0001,1.9272 0.0001,4.0832 L0.0001,19.9172 C0.0001,22.0732 1.7021,23.8282 3.7941,23.8282 L4.4981,23.8282 L6.1541,23.8282 L17.4551,23.8282 L20.9431,23.8282 L21.2491,23.8282 L21.2491,23.7952 C22.7891,23.6292 24.0001,22.2562 24.0001,20.5712 L24.0001,9.8732 C24.0001,8.0772 22.6291,6.6162 20.9431,6.6162" id="Fill-3"></path>
                            <path d="M13.4007,15.4922 L12.0017,14.0932 L11.9997,14.0952 L8.6957,10.7912 C8.3097,10.4042 7.6837,10.4042 7.2967,10.7912 C6.9107,11.1772 6.9107,11.8042 7.2967,12.1892 L10.6007,15.4942 L7.2967,18.7982 C6.9107,19.1842 6.9107,19.8102 7.2967,20.1972 C7.6837,20.5832 8.3097,20.5832 8.6957,20.1972 L11.9997,16.8922 L15.3037,20.1972 C15.6907,20.5832 16.3167,20.5832 16.7027,20.1972 C17.0887,19.8102 17.0887,19.1842 16.7027,18.7982 L13.3997,15.4942 L13.4007,15.4922 Z" id="Fill-5"></path>
                            <path d="M16.7029,10.791 L16.7029,10.791 C16.3169,10.404 15.6899,10.404 15.3039,10.791 L13.6989,12.396 C13.3119,12.782 13.3119,13.409 13.6989,13.795 C14.0849,14.182 14.7109,14.182 15.0979,13.795 L16.7029,12.189 C17.0889,11.804 17.0889,11.177 16.7029,10.791" id="Fill-7"></path>
                        </g>
                    </g>
                </g>
            </g>
        </g>
    </g>
</svg>