<?xml version="1.0" encoding="UTF-8"?>
<svg width="28px" height="28px" viewBox="0 0 28 28" version="1.1" xmlns="http://www.w3.org/2000/svg" xmlns:xlink="http://www.w3.org/1999/xlink">
    <!-- Generator: Sketch 63 (92445) - https://sketch.com -->
    <title>文件下载-点击前状态</title>
    <desc>Created with Sketch.</desc>
    <g id="后台设计" stroke="none" stroke-width="1" fill="none" fill-rule="evenodd">
        <g id="文件下载拆分-各种图标状态" transform="translate(-372.000000, -335.000000)">
            <g id="文件下载-加载失败状态" transform="translate(357.000000, 335.000000)">
                <g id="文件下载-点击前状态-2">
                    <g transform="translate(15.000000, 0.000000)">
                        <g id="文件下载-点击前状态">
                            <g id="编组" transform="translate(2.000000, 2.000000)">
                                <g id="编组-9" transform="translate(1.000000, 1.183663)" fill="#EAEFFF">
                                    <rect id="矩形" x="0" y="5.43263685" width="22" height="17.1818682" rx="4"></rect>
                                    <rect id="矩形" x="0" y="-7.01660952e-14" width="12.4694176" height="8.6326737"></rect>
                                </g>
                                <path d="M6.154,21.8497 L3.794,21.8497 C2.793,21.8497 1.978,20.9837 1.978,19.9167 L1.978,4.0827 C1.978,3.0167 2.793,2.1507 3.794,2.1507 L11.64,2.1507 C12.641,2.1507 13.455,3.0167 13.455,4.0827 C13.455,4.6287 13.898,5.0727 14.445,5.0727 C14.991,5.0727 15.434,4.6287 15.434,4.0827 C15.434,1.9267 13.732,0.1717 11.64,0.1717 L3.794,0.1717 C1.702,0.1717 0,1.9267 0,4.0827 L0,19.9167 C0,22.0737 1.702,23.8287 3.794,23.8287 L6.154,23.8287 C6.7,23.8287 7.143,23.3857 7.143,22.8387 C7.143,22.2917 6.7,21.8497 6.154,21.8497" id="Fill-3" fill="#e02020"></path>
                                <path d="M20.9436,6.6163 L5.2696,6.6163 C4.7226,6.6163 4.2796,7.0583 4.2796,7.6053 C4.2796,8.1523 4.7226,8.5953 5.2696,8.5953 L20.9436,8.5953 C21.5376,8.5953 22.0216,9.1683 22.0216,9.8733 L22.0216,20.5713 C22.0216,21.2763 21.5376,21.8493 20.9436,21.8493 L17.4546,21.8493 C16.9086,21.8493 16.4656,22.2923 16.4656,22.8393 C16.4656,23.3863 16.9086,23.8283 17.4546,23.8283 L20.9436,23.8283 C22.6286,23.8283 24.0006,22.3673 24.0006,20.5713 L24.0006,9.8733 C24.0006,8.0773 22.6286,6.6163 20.9436,6.6163" id="Fill-5" fill="#e02020"></path>
                                <path d="M14.364,23.4727 L18.561,19.2767 C18.947,18.8897 18.947,18.2637 18.561,17.8767 C18.175,17.4907 17.548,17.4907 17.162,17.8767 L14.654,20.3847 L14.654,11.8267 C14.654,11.2797 14.211,10.8367 13.664,10.8367 C13.118,10.8367 12.675,11.2797 12.675,11.8267 L12.675,22.7737 C12.675,22.9027 12.701,23.0307 12.751,23.1517 C12.801,23.2707 12.872,23.3767 12.961,23.4667 C12.963,23.4687 12.963,23.4717 12.965,23.4727 L12.969,23.4757 C13.059,23.5657 13.167,23.6367 13.286,23.6867 C13.405,23.7357 13.53,23.7597 13.656,23.7607 C13.659,23.7607 13.661,23.7627 13.664,23.7627 C13.667,23.7627 13.67,23.7607 13.673,23.7607 C13.799,23.7597 13.924,23.7357 14.043,23.6867 C14.163,23.6357 14.273,23.5647 14.364,23.4727" id="Fill-7" fill="#e02020"></path>
                                <path d="M10.2463,17.96 C9.8603,17.573 9.2333,17.573 8.8473,17.96 C8.4613,18.346 8.4613,18.973 8.8473,19.358 L10.2463,20.758 C10.6333,21.144 11.2593,21.144 11.6453,20.758 C12.0323,20.371 12.0323,19.745 11.6453,19.358 L10.2463,17.96 Z" id="Fill-9" fill="#e02020"></path>
                            </g>
                        </g>
                    </g>
                </g>
            </g>
        </g>
    </g>
</svg>