<?xml version="1.0" encoding="UTF-8"?>
<svg width="28px" height="28px" viewBox="0 0 28 28" version="1.1" xmlns="http://www.w3.org/2000/svg" xmlns:xlink="http://www.w3.org/1999/xlink">
    <!-- Generator: Sketch 63 (92445) - https://sketch.com -->
    <title>文件体检-点击前状态</title>
    <desc>Created with Sketch.</desc>
    <g id="后台设计" stroke="none" stroke-width="1" fill="none" fill-rule="evenodd">
        <g id="文件下载拆分-各种图标状态" transform="translate(-480.000000, -335.000000)">
            <g id="文件体检-加载失败状态" transform="translate(465.000000, 335.000000)">
                <g id="文件体检备份" transform="translate(15.000000, 0.000000)">
                    <g id="文件体检-点击前状态">
                        <rect id="矩形" fill="#EAEFFF" x="3" y="4.5348" width="21.1533" height="15.13495"></rect>
                        <g id="编组" transform="translate(2.000000, 2.000000)" fill="#f7b500">
                            <path d="M3.6923,2.5348 C2.6743,2.5348 1.8463,3.3628 1.8463,4.3808 L1.8463,15.4578 C1.8463,16.4748 2.6743,17.3048 3.6923,17.3048 L20.3073,17.3048 C21.3253,17.3048 22.1533,16.4748 22.1533,15.4578 L22.1533,4.3808 C22.1533,3.3628 21.3253,2.5348 20.3073,2.5348 L3.6923,2.5348 Z M20.3073,19.1498 L3.6923,19.1498 C1.6563,19.1498 0.0003,17.4938 0.0003,15.4578 L0.0003,4.3808 C0.0003,2.3448 1.6563,0.6878 3.6923,0.6878 L20.3073,0.6878 C22.3433,0.6878 24.0003,2.3448 24.0003,4.3808 L24.0003,15.4578 C24.0003,17.4938 22.3433,19.1498 20.3073,19.1498 L20.3073,19.1498 Z" id="Fill-3"></path>
                            <path d="M19.3847,22.9469 L4.6147,22.9469 C4.1057,22.9469 3.6927,22.5339 3.6927,22.0239 C3.6927,21.5139 4.1057,21.1009 4.6147,21.1009 L19.3847,21.1009 C19.8947,21.1009 20.3077,21.5139 20.3077,22.0239 C20.3077,22.5339 19.8947,22.9469 19.3847,22.9469" id="Fill-5"></path>
                            <path d="M15.9199,11.9753 C15.6849,11.9753 15.4579,11.8923 15.2769,11.7423 L10.6389,7.8523 L8.4709,11.4883 C8.2909,11.7893 7.9639,11.9753 7.6119,11.9753 L7.6019,11.9753 L4.8329,11.9473 C4.2809,11.9413 3.8379,11.4893 3.84285809,10.9373 C3.8489,10.3883 4.2949,9.9473 4.8429,9.9473 L4.8539,9.9473 L7.0479,9.9693 L9.5229,5.8193 C9.6729,5.5683 9.9259,5.3943 10.2149,5.3453 C10.5029,5.3003 10.7999,5.3773 11.0239,5.5653 L16.2799,9.9723 L19.6049,9.9473 L19.6119,9.9473 C20.1609,9.9473 20.6079,10.3893 20.6119417,10.9393 C20.6169,11.4923 20.1719,11.9433 19.6199,11.9473 L15.9279,11.9753 L15.9199,11.9753 Z" id="Fill-7"></path>
                        </g>
                    </g>
                </g>
            </g>
        </g>
    </g>
</svg>