<?xml version="1.0" encoding="UTF-8"?>
<svg width="28px" height="28px" viewBox="0 0 28 28" version="1.1" xmlns="http://www.w3.org/2000/svg" xmlns:xlink="http://www.w3.org/1999/xlink">
    <!-- Generator: Sketch 63 (92445) - https://sketch.com -->
    <title>分片上传-点击前状态</title>
    <desc>Created with Sketch.</desc>
    <g id="后台设计" stroke="none" stroke-width="1" fill="none" fill-rule="evenodd">
        <g id="文件下载拆分-各种图标状态" transform="translate(-709.000000, -333.000000)">
            <g id="分片上传-加载失败状态备份" transform="translate(681.000000, 333.000000)">
                <g id="分片上传-加载失败状态">
                    <g id="分片上传-加载失败状态-2" transform="translate(28.000000, 0.000000)">
                        <g id="分片上传-加载失败状态">
                            <rect id="矩形" fill="#EAEFFF" x="3" y="4" width="22" height="21" rx="2"></rect>
                            <path d="M22,3 C24.209139,3 26,4.790861 26,7 L26,22 C26,24.209139 24.209139,26 22,26 L6,26 C3.790861,26 2,24.209139 2,22 L2,7 C2,4.790861 3.790861,3 6,3 L22,3 Z M22,5 L6,5 C4.9456382,5 4.08183488,5.81587779 4.00548574,6.85073766 L4,7 L4,22 C4,23.0543618 4.81587779,23.9181651 5.85073766,23.9945143 L6,24 L22,24 C23.0543618,24 23.9181651,23.1841222 23.9945143,22.1492623 L24,22 L24,7 C24,5.9456382 23.1841222,5.08183488 22.1492623,5.00548574 L22,5 Z" id="矩形" fill="#c2c2c2" fill-rule="nonzero"></path>
                            <path d="M14.6607443,10.4562631 C14.9952915,9.93989079 15.7032504,9.85177144 16.1539101,10.2431716 L16.2404245,10.3278605 L21.356,15.963 L24.4170047,13.2515606 C24.7985601,12.9134587 25.3664312,12.9199673 25.7396251,13.2480815 L25.8286473,13.3367968 C26.1667491,13.7183522 26.1602405,14.2862234 25.8321263,14.6594172 L25.743411,14.7484394 L21.9433087,18.1157657 C21.5649881,18.4510012 21.002733,18.4478069 20.6289774,18.1264277 L20.5396811,18.0394658 L15.632,12.634 L11.6528238,18.777225 C11.3028598,19.317393 10.5518714,19.3839252 10.1104278,18.9448834 L10.0264768,18.8503245 L6.2129087,13.9841628 C5.8722393,13.5494643 5.94846496,12.9209044 6.38316348,12.580235 C6.78442365,12.2657709 7.35086748,12.3065311 7.70358407,12.6565647 L7.7870913,12.7504898 L10.736,16.513 L14.6607443,10.4562631 Z" id="路径-2" fill="#c2c2c2" fill-rule="nonzero"></path>
                        </g>
                    </g>
                </g>
            </g>
        </g>
    </g>
</svg>