<?xml version="1.0" encoding="UTF-8"?>
<svg width="29px" height="28px" viewBox="0 0 29 28" version="1.1" xmlns="http://www.w3.org/2000/svg" xmlns:xlink="http://www.w3.org/1999/xlink">
    <!-- Generator: Sketch 63 (92445) - https://sketch.com -->
    <title>分片上传-点击前状态</title>
    <desc>Created with Sketch.</desc>
    <g id="后台设计" stroke="none" stroke-width="1" fill="none" fill-rule="evenodd">
        <g id="文件下载拆分-各种图标状态" transform="translate(-845.000000, -333.000000)">
            <g id="分片上传-加载失败状态备份-3" transform="translate(817.500000, 333.000000)">
                <g id="分片上传-加载失败状态">
                    <g id="分片上传-加载失败状态-2" transform="translate(28.000000, 0.000000)">
                        <g id="分片上传-加载失败状态">
                            <rect id="矩形" fill="#EAEFFF" x="3" y="4" width="22" height="21" rx="2"></rect>
                            <path d="M22,3 C24.209139,3 26,4.790861 26,7 L26,22 C26,24.209139 24.209139,26 22,26 L6,26 C3.790861,26 2,24.209139 2,22 L2,7 C2,4.790861 3.790861,3 6,3 L22,3 Z M22,5 L6,5 C4.9456382,5 4.08183488,5.81587779 4.00548574,6.85073766 L4,7 L4,22 C4,23.0543618 4.81587779,23.9181651 5.85073766,23.9945143 L6,24 L22,24 C23.0543618,24 23.9181651,23.1841222 23.9945143,22.1492623 L24,22 L24,7 C24,5.9456382 23.1841222,5.08183488 22.1492623,5.00548574 L22,5 Z" id="矩形" fill="#f7b500" fill-rule="nonzero"></path>
                            <rect id="矩形" fill="#f7b500" x="3" y="10" width="22" height="2"></rect>
                            <g id="编组-12" transform="translate(7.500000, 14.149208)" fill="#f7b500">
                                <rect id="矩形备份-3" transform="translate(1.000000, 4.000000) rotate(-270.000000) translate(-1.000000, -4.000000) " x="-2" y="3" width="6" height="2" rx="1"></rect>
                                <rect id="矩形备份-6" transform="translate(6.500000, 4.000000) rotate(-270.000000) translate(-6.500000, -4.000000) " x="2.5" y="3" width="8" height="2" rx="1"></rect>
                                <rect id="矩形备份-10" transform="translate(12.000000, 4.000000) rotate(-270.000000) translate(-12.000000, -4.000000) " x="9" y="3" width="6" height="2" rx="1"></rect>
                            </g>
                        </g>
                    </g>
                </g>
            </g>
        </g>
    </g>
</svg>