<?xml version="1.0" encoding="UTF-8"?>
<svg width="64px" height="64px" viewBox="0 0 64 64" version="1.1" xmlns="http://www.w3.org/2000/svg" xmlns:xlink="http://www.w3.org/1999/xlink">
    <!-- Generator: Sketch 63 (92445) - https://sketch.com -->
    <title>总控任务节点-图标</title>
    <desc>Created with Sketch.</desc>
    <g id="后台设计" stroke="none" stroke-width="1" fill="none" fill-rule="evenodd">
        <g id="运行图-重跑失败状态" transform="translate(-454.000000, -206.000000)">
            <g id="编组-27" transform="translate(444.000000, 206.000000)">
                <g id="总控任务节点-图标-备份" transform="translate(10.000000, 0.000000)">
                    <g id="总控任务节点-图标" transform="translate(1.500000, 1.500000)">
                        <rect id="矩形" x="0.625" y="0.25" width="60" height="60"></rect>
                        <g id="编组-62" transform="translate(0.625000, 0.250000)">
                            <path d="M30,0 C46.5685425,0 60,13.4314575 60,30 C60,46.5685425 46.5685425,60 30,60 C13.4314575,60 0,46.5685425 0,30 C0,13.4314575 13.4314575,0 30,0 Z M30,4.28571429 C15.7983921,4.28571429 4.28571429,15.7983921 4.28571429,30 C4.28571429,44.2016079 15.7983921,55.7142857 30,55.7142857 C44.2016079,55.7142857 55.7142857,44.2016079 55.7142857,30 C55.7142857,15.7983921 44.2016079,4.28571429 30,4.28571429 Z" id="椭圆形" fill="#c2c2c2" fill-rule="nonzero"></path>
                            <circle id="椭圆形" fill="#F9F9F9" cx="30" cy="30" r="25.715"></circle>
                            <g id="编组-67" transform="translate(13.928571, 10.714286)" fill="#c2c2c2">
                                <g id="编组-66">
                                    <path d="M24.6428571,1.2058803 C25.8263245,1.2058803 26.7857143,2.16527012 26.7857143,3.34873744 L26.7855754,7.9449947 C29.8836707,8.86696726 32.1428571,11.7368789 32.1428571,15.1344517 C32.1428571,18.5320246 29.8836707,21.4019362 26.7855754,22.3239088 L26.7857143,35.4915946 C26.7857143,36.6750619 25.8263245,37.6344517 24.6428571,37.6344517 C23.4593898,37.6344517 22.5,36.6750619 22.5,35.4915946 L22.5001389,22.3239088 C19.4020436,21.4019362 17.1428571,18.5320246 17.1428571,15.1344517 C17.1428571,11.7368789 19.4020436,8.86696726 22.5001389,7.9449947 L22.5,3.34873744 C22.5,2.16527012 23.4593898,1.2058803 24.6428571,1.2058803 Z M7.5,0.936976841 C8.68346732,0.936976841 9.64285714,1.89636666 9.64285714,3.07983398 L9.64271828,16.2475198 C12.7408135,17.1694924 15,20.039404 15,23.4369768 C15,26.8345497 12.7408135,29.7044613 9.64271828,30.6264339 L9.64285714,35.2226911 C9.64285714,36.4061584 8.68346732,37.3655483 7.5,37.3655483 C6.31653268,37.3655483 5.35714286,36.4061584 5.35714286,35.2226911 L5.35728172,30.6264339 C2.25918649,29.7044613 3.07629039e-13,26.8345497 3.0908609e-13,23.4369768 C3.0908609e-13,20.039404 2.25918649,17.1694924 5.35728172,16.2475198 L5.35714286,3.07983398 C5.35714286,1.89636666 6.31653268,0.936976841 7.5,0.936976841 Z M7.5,20.2226911 C5.72479902,20.2226911 4.28571429,21.6617759 4.28571429,23.4369768 C4.28571429,25.2121778 5.72479902,26.6512626 7.5,26.6512626 C9.27520098,26.6512626 10.7142857,25.2121778 10.7142857,23.4369768 C10.7142857,21.6617759 9.27520098,20.2226911 7.5,20.2226911 Z M24.6428571,11.920166 C22.8676562,11.920166 21.4285714,13.3592507 21.4285714,15.1344517 C21.4285714,16.9096527 22.8676562,18.3487374 24.6428571,18.3487374 C26.4180581,18.3487374 27.8571429,16.9096527 27.8571429,15.1344517 C27.8571429,13.3592507 26.4180581,11.920166 24.6428571,11.920166 Z" id="形状结合"></path>
                                </g>
                            </g>
                        </g>
                    </g>
                </g>
            </g>
        </g>
    </g>
</svg>