<?xml version="1.0" encoding="UTF-8"?>
<svg width="65px" height="64px" viewBox="0 0 65 64" version="1.1" xmlns="http://www.w3.org/2000/svg" xmlns:xlink="http://www.w3.org/1999/xlink">
    <!-- Generator: Sketch 63 (92445) - https://sketch.com -->
    <title>文件拆分-图标 </title>
    <desc>Created with Sketch.</desc>
    <g id="后台设计" stroke="none" stroke-width="1" fill="none" fill-rule="evenodd">
        <g id="运行图-重跑失败状态" transform="translate(-638.000000, -206.000000)">
            <g id="编组-12" transform="translate(626.000000, 206.000000)">
                <g id="文件拆分-图标-备份" transform="translate(14.000000, 2.000000)" fill="#3f67ed">
                    <g id="下载备份" transform="translate(0.559814, 0.000000)">
                        <path d="M30,0 C46.5685425,0 60,13.4314575 60,30 C60,46.5685425 46.5685425,60 30,60 C13.4314575,60 0,46.5685425 0,30 C0,13.4314575 13.4314575,0 30,0 Z" id="路径" fill="#3f67ed" fill-rule="nonzero"></path>
                        <path d="M30,4.28571429 C15.7983921,4.28571429 4.28571429,15.7983921 4.28571429,30 C4.28571429,44.2016079 15.7983921,55.7142857 30,55.7142857 C44.2016079,55.7142857 55.7142857,44.2016079 55.7142857,30 C55.7142857,15.7983921 44.2016079,4.28571429 30,4.28571429 Z" id="路径" fill="#3F67ED" fill-rule="nonzero"></path>
                        <circle id="椭圆形" fill="#F9F9F9" cx="30" cy="30" r="25.7142857"></circle>
                        <path d="M30.3118809,12.8571429 C31.4953482,12.8571429 32.454738,13.8165327 32.454738,15 L32.4539358,24.9391429 L33.2123524,24.1816755 C34.0491902,23.3448377 35.4059723,23.3448377 36.24281,24.1816755 C37.0796478,25.0185132 37.0796478,26.3752953 36.24281,27.2121331 L31.6971236,31.7578196 C31.269775,32.1851681 30.706833,32.3942823 30.1467847,32.385162 C29.5865411,32.3942823 29.0235991,32.1851681 28.5962505,31.7578196 L28.5962505,31.7578196 L24.0505641,27.2121331 C23.2137263,26.3752953 23.2137263,25.0185132 24.0505641,24.1816755 C24.8874019,23.3448377 26.2441839,23.3448377 27.0810217,24.1816755 L27.0810217,24.1816755 L28.1689358,25.2691429 L28.1690237,15 C28.1690237,13.8165327 29.1284135,12.8571429 30.3118809,12.8571429 Z" id="形状结合" fill="#3f67ed"></path>
                        <path d="M16.0714286,42.8571429 C14.8879613,42.8571429 13.9285714,41.897753 13.9285714,40.7142857 L13.9285714,34.2857143 C13.9285714,33.102247 14.8879613,32.1428571 16.0714286,32.1428571 C17.2548959,32.1428571 18.2142857,33.102247 18.2142857,34.2857143 L18.2135714,38.5708571 L41.7855714,38.5708571 L41.7857143,34.2857143 C41.7857143,33.102247 42.7451041,32.1428571 43.9285714,32.1428571 C45.1120387,32.1428571 46.0714286,33.102247 46.0714286,34.2857143 L46.0714286,40.7142857 C46.0714286,41.897753 45.1120387,42.8571429 43.9285714,42.8571429 L16.0714286,42.8571429 L16.0714286,42.8571429 Z" id="形状结合" fill="#3f67ed"></path>
                    </g>
                </g>
            </g>
        </g>
    </g>
</svg>