<?xml version="1.0" encoding="UTF-8"?>
<svg width="64px" height="64px" viewBox="0 0 64 64" version="1.1" xmlns="http://www.w3.org/2000/svg" xmlns:xlink="http://www.w3.org/1999/xlink">
    <!-- Generator: Sketch 63 (92445) - https://sketch.com -->
    <title>联机服务调度-图标</title>
    <desc>Created with Sketch.</desc>
    <g id="后台设计" stroke="none" stroke-width="1" fill="none" fill-rule="evenodd">
        <g id="运行图-重跑失败状态" transform="translate(-818.000000, -206.000000)">
            <g id="编组-13" transform="translate(808.000000, 206.000000)">
                <g id="联机服务调度-图标" transform="translate(10.000000, 0.000000)">
                    <g transform="translate(2.000000, 2.000000)">
                        <rect id="矩形" x="0" y="0" width="60" height="60"></rect>
                        <g id="编组-55备份-2">
                            <g id="编组-62">
                                <path d="M30,0 C46.5685425,0 60,13.4314575 60,30 C60,46.5685425 46.5685425,60 30,60 C13.4314575,60 0,46.5685425 0,30 C0,13.4314575 13.4314575,0 30,0 Z M30,4.28571429 C15.7983921,4.28571429 4.28571429,15.7983921 4.28571429,30 C4.28571429,44.2016079 15.7983921,55.7142857 30,55.7142857 C44.2016079,55.7142857 55.7142857,44.2016079 55.7142857,30 C55.7142857,15.7983921 44.2016079,4.28571429 30,4.28571429 Z" id="椭圆形" fill="#e02020" fill-rule="nonzero"></path>
                                <circle id="椭圆形" fill="#F9F9F9" cx="30" cy="30" r="25.7142857"></circle>
                                <path d="M38.5714286,15 L21.4285714,15 C17.8781695,15 15,17.8781695 15,21.4285714 L15,32.1428571 C15,35.6932591 17.8781695,38.5714286 21.4285714,38.5714286 L38.5714286,38.5714286 C42.1218305,38.5714286 45,35.6932591 45,32.1428571 L45,21.4285714 C45,17.8781695 42.1218305,15 38.5714286,15 Z M21.4285714,19.2857143 L38.5714286,19.2857143 C39.7548959,19.2857143 40.7142857,20.2451041 40.7142857,21.4285714 L40.7142857,32.1428571 C40.7142857,33.3263245 39.7548959,34.2857143 38.5714286,34.2857143 L21.4285714,34.2857143 C20.2451041,34.2857143 19.2857143,33.3263245 19.2857143,32.1428571 L19.2857143,21.4285714 C19.2857143,20.2451041 20.2451041,19.2857143 21.4285714,19.2857143 Z" id="矩形" fill="#e02020" fill-rule="nonzero"></path>
                            </g>
                            <rect id="矩形" fill="#e02020" x="17.1428571" y="40.7142857" width="25.7142857" height="4.28571429" rx="2.14285714"></rect>
                        </g>
                    </g>
                </g>
            </g>
        </g>
    </g>
</svg>