<?xml version="1.0" encoding="UTF-8"?>
<svg width="64px" height="64px" viewBox="0 0 64 64" version="1.1" xmlns="http://www.w3.org/2000/svg" xmlns:xlink="http://www.w3.org/1999/xlink">
    <!-- Generator: Sketch 63 (92445) - https://sketch.com -->
    <title>结果文件排序</title>
    <desc>Created with Sketch.</desc>
    <g id="后台设计" stroke="none" stroke-width="1" fill="none" fill-rule="evenodd">
        <g id="运行图-重跑失败状态" transform="translate(-1000.000000, -206.000000)">
            <g id="编组-15" transform="translate(990.000000, 206.000000)">
                <g id="结果文件排序" transform="translate(12.000000, 2.000000)">
                    <g id="编组-55备份-3">
                        <g id="编组-62">
                            <path d="M30,0 C46.5685425,0 60,13.4314575 60,30 C60,46.5685425 46.5685425,60 30,60 C13.4314575,60 0,46.5685425 0,30 C0,13.4314575 13.4314575,0 30,0 Z M30,4.28571429 C15.7983921,4.28571429 4.28571429,15.7983921 4.28571429,30 C4.28571429,44.2016079 15.7983921,55.7142857 30,55.7142857 C44.2016079,55.7142857 55.7142857,44.2016079 55.7142857,30 C55.7142857,15.7983921 44.2016079,4.28571429 30,4.28571429 Z" id="椭圆形" fill="#3f67ed" fill-rule="nonzero"></path>
                            <circle id="椭圆形" fill="#F9F9F9" cx="30" cy="30" r="25.7142857"></circle>
                        </g>
                        <g id="编组-58" transform="translate(16.071429, 15.071429)" fill="#3f67ed">
                            <g id="编组-57" transform="translate(0.000000, 2.000000)">
                                <path   d="M10.0866574,0.882884978 C10.5096408,1.30586843 10.7188254,1.8616895 10.714211,2.41606143 C10.7142547,2.42234839 10.7142857,2.42906731 10.7142857,2.43579347 L10.7142857,23.8643649 C10.7142857,25.0478322 9.75489589,26.007222 8.57142857,26.007222 C7.38796125,26.007222 6.42857143,25.0478322 6.42857143,23.8643649 L6.42765616,7.57225665 L4.02574212,9.97425788 C3.18890435,10.8110956 1.83212226,10.8110956 0.995284487,9.97425788 C0.158446719,9.13742011 0.158446719,7.78063801 0.995284487,6.94380025 L7.05619975,0.882884978 C7.89303752,0.04604721 9.24981962,0.04604721 10.0866574,0.882884978 Z" id="形状结合"></path>
                            </g>
                            <g id="编组-57" transform="translate(21.285714, 14.357143) rotate(-180.000000) translate(-21.285714, -14.357143) translate(15.785714, 0.857143)">
                                <path d="M10.0866574,0.882884978 C10.5096408,1.30586843 10.7188254,1.8616895 10.714211,2.41606143 C10.7142547,2.42234839 10.7142857,2.42906731 10.7142857,2.43579347 L10.7142857,23.8643649 C10.7142857,25.0478322 9.75489589,26.007222 8.57142857,26.007222 C7.38796125,26.007222 6.42857143,25.0478322 6.42857143,23.8643649 L6.42765616,7.57225665 L4.02574212,9.97425788 C3.18890435,10.8110956 1.83212226,10.8110956 0.995284487,9.97425788 C0.158446719,9.13742011 0.158446719,7.78063801 0.995284487,6.94380025 L7.05619975,0.882884978 C7.89303752,0.04604721 9.24981962,0.04604721 10.0866574,0.882884978 Z" id="形状结合"></path>
                            </g>
                        </g>
                    </g>
                </g>
            </g>
        </g>
    </g>
</svg>