<?xml version="1.0" encoding="UTF-8"?>
<svg width="64px" height="64px" viewBox="0 0 64 64" version="1.1" xmlns="http://www.w3.org/2000/svg" xmlns:xlink="http://www.w3.org/1999/xlink">
    <!-- Generator: Sketch 63 (92445) - https://sketch.com -->
    <title>结果文件排序-图标备份 3</title>
    <desc>Created with Sketch.</desc>
    <defs>
        <polygon id="path-1" points="0.0693359375 0.302385603 34.3531503 0.302385603 34.3531503 34.5880999 0.0693359375 34.5880999"></polygon>
    </defs>
    <g id="后台设计" stroke="none" stroke-width="1" fill="none" fill-rule="evenodd">
        <g id="运行图-重跑失败状态" transform="translate(-1182.000000, -206.000000)">
            <g id="编组-5" transform="translate(1172.000000, 206.000000)">
                <g id="编组-60备份" transform="translate(12.000000, 2.000000)">
                    <g id="编组-55备份">
                        <g id="编组-62">
                            <path d="M30,0 C46.5685425,0 60,13.4314575 60,30 C60,46.5685425 46.5685425,60 30,60 C13.4314575,60 0,46.5685425 0,30 C0,13.4314575 13.4314575,0 30,0 Z M30,4.28571429 C15.7983921,4.28571429 4.28571429,15.7983921 4.28571429,30 C4.28571429,44.2016079 15.7983921,55.7142857 30,55.7142857 C44.2016079,55.7142857 55.7142857,44.2016079 55.7142857,30 C55.7142857,15.7983921 44.2016079,4.28571429 30,4.28571429 Z" id="椭圆形" fill="#e02020" fill-rule="nonzero"></path>
                            <circle id="椭圆形" fill="#F9F9F9" cx="30" cy="30" r="25.7142857"></circle>
                        </g>
                    </g>
                    <g id="编组" transform="translate(11.714286, 15.000000)">
                        <g id="编组-59">
                            <mask id="mask-2" fill="white">
                                <use xlink:href="#path-1"></use>
                            </mask>
                            <g id="Clip-2"></g>
                            <path d="M6.22102577,13.3348894 L16.1577371,18.498122 L21.3189606,28.4368424 L28.8689325,5.7849175 L6.22102577,13.3348894 Z M21.4475392,33.5177043 C20.2139887,33.5177043 19.072854,32.8306126 18.4962596,31.7155955 L13.1763219,21.4775281 L2.93624554,16.1575905 C1.74488488,15.5347881 1.045739,14.2731111 1.15020907,12.9391086 C1.25668819,11.599079 2.14669286,10.4579443 3.41841512,10.0340369 L28.893041,1.54182523 C29.7308107,1.26457773 30.6589871,1.328867 31.4425127,1.72464786 C32.2260382,2.1144016 32.8367863,2.81957461 33.1140339,3.65332616 L33.1140339,3.65734424 C33.3390463,4.33439069 33.3390463,5.08175353 33.1140339,5.75879998 L24.6218222,31.2354349 C24.1979148,32.5111753 23.0567801,33.4011799 21.7167505,33.50565 C21.6263437,33.5136862 21.5359369,33.5177043 21.4475392,33.5177043 L21.4475392,33.5177043 Z" id="Fill-1" fill="#e02020" mask="url(#mask-2)"></path>
                        </g>
                    </g>
                </g>
                <g id="结果文件排序-图标备份-4" transform="translate(10.000000, 0.000000)"></g>
            </g>
        </g>
    </g>
</svg>