<?xml version="1.0" encoding="UTF-8"?>
<svg width="28px" height="28px" viewBox="0 0 28 28" version="1.1" xmlns="http://www.w3.org/2000/svg" xmlns:xlink="http://www.w3.org/1999/xlink">
    <!-- Generator: Sketch 63 (92445) - https://sketch.com -->
    <title>分片文件解析入库-点击前状态备份 9</title>
    <desc>Created with Sketch.</desc>
    <g id="后台设计" stroke="none" stroke-width="1" fill="none" fill-rule="evenodd">
        <g id="结果文件排序-各种图标状态" transform="translate(-548.000000, -332.000000)">
            <g id="编组-15备份-6" transform="translate(513.000000, 332.000000)">
                <g id="编组-14">
                    <g id="编组-9" transform="translate(35.000000, 0.000000)">
                        <g id="分片文件解析入库-点击前状态备份-6">
                            <g id="编组" transform="translate(3.000000, 2.000000)">
                                <rect id="矩形" fill="#EAEFFF" x="0" y="1" width="20.7366" height="22" rx="3"></rect>
                                <path d="M19.7216,20.1615 C19.1676,20.1615 18.7166,20.6055 18.7066,21.1585 C18.7066,21.6075 18.3436,21.9715 17.8946,21.9725 L2.9076,21.9725 C2.4576,21.9715 2.0946,21.6065 2.0936,21.1585 L2.0936,2.8425 C2.0946,2.3925 2.4576,2.0295 2.9076,2.0285 L17.8946,2.0285 C18.3436,2.0295 18.7066,2.3925 18.7066,2.8425 L18.7066,10.3225 C18.7166,10.8765 19.1676,11.3205 19.7216,11.3205 C20.2756,11.3205 20.7276,10.8765 20.7366,10.3225 L20.7366,2.8425 C20.7346,1.2725 19.4636,0.0015 17.8946,0.0005 L2.9076,0.0005 C1.3386,0.0015 0.0676,1.2725 0.0656,2.8425 L0.0656,21.1585 C0.0676,22.7265 1.3386,23.9985 2.9076,24.0005 L17.8946,24.0005 C19.4626,23.9985 20.7346,22.7275 20.7366,21.1585 C20.7276,20.6055 20.2756,20.1615 19.7216,20.1615" id="Fill-3" fill="#3F67ED"></path>
                                <path d="M14.7684,9.1546 C14.7684,8.6006 14.3254,8.1496 13.7714,8.1396 L5.6394,8.1396 C5.0854,8.1496 4.6424,8.6006 4.6424,9.1546 C4.6424,9.7086 5.0854,10.1606 5.6394,10.1696 L13.7714,10.1696 C14.3254,10.1606 14.7684,9.7086 14.7684,9.1546" id="Fill-5" fill="#3F67ED"></path>
                                <path d="M17.5673,5.6732 C17.5673,5.1132 17.1133,4.6592 16.5523,4.6592 L5.6393,4.6592 C5.0793,4.6592 4.6253,5.1132 4.6253,5.6732 C4.6253,6.2342 5.0793,6.6882 5.6393,6.6882 L16.5523,6.6882 C17.1133,6.6882 17.5673,6.2342 17.5673,5.6732" id="Fill-7" fill="#3F67ED"></path>
                                <path d="M5.6395,11.2435 C5.0855,11.2525 4.6425,11.7045 4.6425,12.2585 C4.6425,12.8115 5.0855,13.2635 5.6395,13.2725 L10.8285,13.2725 C11.3825,13.2635 11.8265,12.8115 11.8265,12.2585 C11.8265,11.7045 11.3825,11.2525 10.8285,11.2435 L5.6395,11.2435 Z" id="Fill-9" fill="#3F67ED"></path>
                                <path d="M15.7108,16.2445 C15.1408,15.7785 14.9058,15.0155 15.1178,14.3105 C15.3298,13.6055 15.9458,13.0985 16.6788,13.0235 C16.7408,13.0175 16.8018,13.0155 16.8628,13.0155 C17.7958,13.0155 18.5768,13.7225 18.6718,14.6495 C18.7458,15.3825 18.3718,16.0875 17.7238,16.4365 C17.0758,16.7855 16.2808,16.7095 15.7108,16.2445 M21.6748,17.8335 L19.7438,16.2575 C20.0038,15.7325 20.1318,15.1345 20.0678,14.5085 C19.8938,12.7795 18.3798,11.5005 16.6458,11.6175 C14.9118,11.7335 13.5828,13.2035 13.6408,14.9395 C13.6978,16.6775 15.1218,18.0555 16.8588,18.0565 C16.9678,18.0565 17.0758,18.0515 17.1868,18.0395 C17.8238,17.9745 18.3968,17.7235 18.8628,17.3515 L20.7878,18.9225 C20.9138,19.0245 21.0698,19.080504 21.2318,19.080504 C21.5288,19.0815 21.7948,18.8935 21.8948,18.6135 C21.9938,18.3335 21.9058,18.0205 21.6748,17.8335" id="Fill-11" fill="#3F67ED"></path>
                            </g>
                        </g>
                    </g>
                </g>
            </g>
        </g>
    </g>
</svg>