<?xml version="1.0" encoding="UTF-8"?>
<svg width="28px" height="28px" viewBox="0 0 28 28" version="1.1" xmlns="http://www.w3.org/2000/svg" xmlns:xlink="http://www.w3.org/1999/xlink">
    <!-- Generator: Sketch 63 (92445) - https://sketch.com -->
    <title>分片文件解析入库-点击前状态备份 9</title>
    <desc>Created with Sketch.</desc>
    <defs>
        <polygon id="path-1" points="0.000176108392 0 13.8479617 0 13.8479617 11.0451051 0.000176108392 11.0451051"></polygon>
    </defs>
    <g id="后台设计" stroke="none" stroke-width="1" fill="none" fill-rule="evenodd">
        <g id="结果文件排序-各种图标状态" transform="translate(-699.000000, -332.000000)">
            <g id="编组-15备份-7" transform="translate(671.000000, 332.000000)">
                <g id="编组-14">
                    <g id="编组-9" transform="translate(28.000000, 0.000000)">
                        <g id="分片文件解析入库-点击前状态备份-6">
                            <rect id="矩形" stroke="#3F67ED" stroke-width="2" fill="#EAEFFF" x="4" y="4" width="20" height="20" rx="4"></rect>
                            <g id="编组" transform="translate(7.000000, 8.000000)">
                                <mask id="mask-2" fill="white">
                                    <use xlink:href="#path-1"></use>
                                </mask>
                                <g id="Clip-2"></g>
                                <path d="M6.92440514,9.31315519 L2.48718523,7.6312715 L4.9319415,6.51454145 L6.49841845,7.10854679 C6.63588826,7.16031012 6.7801467,7.18661607 6.92440514,7.18661607 C7.06866358,7.18661607 7.21292202,7.16031012 7.35039183,7.10854679 L8.91602019,6.51454145 L11.3607765,7.6312715 L6.92440514,9.31315519 Z M2.48718523,3.77278251 L6.92440514,1.74637571 L11.3607765,3.77278251 L8.97711789,4.67651921 L6.92440514,5.4546662 L4.87169239,4.67651921 L2.48718523,3.77278251 Z M13.1461868,6.58073062 L11.1486317,5.66850813 L13.0723604,4.93873014 C13.5271988,4.76731716 13.8318387,4.34133048 13.8479617,3.85509467 C13.8640847,3.36885887 13.5882965,2.92420344 13.1461868,2.72224163 L7.4242182,0.109466699 C7.10600106,-0.0373374787 6.74196064,-0.0356403206 6.42544065,0.10861812 L0.702623463,2.72224163 C0.259665193,2.92420344 -0.0152744231,3.36885887 0.000848579061,3.85509467 C0.0169715812,4.34133048 0.320762885,4.76646859 0.775601262,4.93873014 L2.70017857,5.66850813 L0.702623463,6.58073062 C0.259665193,6.78269243 -0.0152744231,7.22734786 0.000848579061,7.71358366 C0.0169715812,8.19981947 0.320762885,8.62495758 0.775601262,8.79721913 L6.49841845,10.9670358 C6.63588826,11.0187991 6.7801467,11.0451051 6.92440514,11.0451051 C7.06866358,11.0451051 7.21292202,11.0187991 7.35039183,10.9670358 L13.0723604,8.79721913 C13.5271988,8.62495758 13.8318387,8.19981947 13.8479617,7.71358366 C13.8640847,7.22734786 13.5882965,6.78269243 13.1461868,6.58073062 L13.1461868,6.58073062 Z" id="Fill-1" fill="#3F67ED" mask="url(#mask-2)"></path>
                            </g>
                        </g>
                    </g>
                </g>
            </g>
        </g>
    </g>
</svg>