<?xml version="1.0" encoding="UTF-8"?>
<svg width="28px" height="28px" viewBox="0 0 28 28" version="1.1" xmlns="http://www.w3.org/2000/svg" xmlns:xlink="http://www.w3.org/1999/xlink">
    <!-- Generator: Sketch 63 (92445) - https://sketch.com -->
    <title>分片文件解析入库-点击前状态备份 9</title>
    <desc>Created with Sketch.</desc>
    <g id="后台设计" stroke="none" stroke-width="1" fill="none" fill-rule="evenodd">
        <g id="结果文件排序-各种图标状态" transform="translate(-987.000000, -332.000000)">
            <g id="编组-15备份-9" transform="translate(959.000000, 332.000000)">
                <g id="编组-14">
                    <g id="编组-9" transform="translate(28.000000, 0.000000)">
                        <g id="分片文件解析入库-点击前状态备份-6">
                            <g id="编组" transform="translate(2.000000, 2.000000)">
                                <circle id="&lt;!---Generator:-Adobe-Illustrator-23.1.1,-SVG-Export-Plug-In----&gt;-&lt;svg-version=&quot;1.1&quot;-xmlns=&quot;http://www.w3.org/2000/svg&quot;-xmlns:xlink=&quot;http://www.w3.org/1999/xlink&quot;-x=&quot;0px&quot;-y=&quot;0px&quot;-width=&quot;22.14px&quot;---height=&quot;18.86px&quot;-viewBox=&quot;0-0-22.14-18.86&quot;-style=&quot;enable-background:new-0-0-22.14-18.86;&quot;-xml:space=&quot;preserve&quot;&gt;-&lt;style-type=&quot;text/css&quot;&gt;--.st0{fill:#F92D63;}-&lt;/style&gt;-&lt;defs&gt;-&lt;/defs&gt;-&lt;g&gt;--&lt;path-class=&quot;st0&quot;-d=&quot;M21.34,9.58c-1.07-1.07-2.81-1.07-3.89,0c-0.85,0.85-1.01,2.12-0.51,3.15l-2.96,2.96---c-1.56,1.56-4.1,1.56-5.66,0c-1.56-1.56-1.56-4.1,0-5.66l3.12-3.12c0.39-0.39,0.39-1.02,0-1.41s-1.02-0.39-1.41,0L6.91,8.62---c-2.34,2.34-2.34,6.15,0,8.49c1.17,1.17,2.71,1.75,4.24,1.75c1.54,0,3.07-0.58,4.24-1.75l3.02-3.02c0.31,0.12,0.65,0.18,0.98,0.18---c0.7,0,1.41-0.27,1.94-0.8C22.41,12.39,22.41,10.65,21.34,9.58z-M20.35,12.47c-0.53,0.52-1.38,0.53-1.91,0---c-0.52-0.53-0.53-1.38,0-1.9c0.26-0.26,0.61-0.39,0.95-0.39c0.35,0,0.69,0.13,0.95,0.39C20.88,11.09,20.88,11.95,20.35,12.47z&quot;/&gt;--&lt;path-class=&quot;st0&quot;-d=&quot;M5.2,6.13l2.96-2.96c1.51-1.51,4.15-1.51,5.66,0c0.76,0.76,1.17,1.76,1.17,2.83s-0.42,2.07-1.17,2.83---l-3.12,3.12c-0.39,0.39-0.39,1.02,0,1.41c0.2,0.2,0.45,0.29,0.71,0.29s0.51-0.1,0.71-0.29l3.12-3.12C16.37,9.11,16.99,7.6,16.99,6---c0-1.6-0.62-3.11-1.76-4.24C14.1,0.62,12.59,0,10.99,0S7.88,0.62,6.75,1.76L3.71,4.79C2.73,4.44,1.56,4.64,0.8,5.4---C0.29,5.92,0,6.61,0,7.34c0,0.73,0.29,1.42,0.8,1.94s1.21,0.8,1.94,0.8c0.73,0,1.42-0.29,1.94-0.8C5.54,8.43,5.7,7.16,5.2,6.13z----M3.7,8.3c-0.51,0.51-1.4,0.51-1.9,0C1.54,8.04,1.4,7.7,1.4,7.34s0.14-0.7,0.39-0.95C2.05,6.14,2.39,6,2.75,6---c0.36,0,0.7,0.14,0.95,0.39C4.22,6.92,4.22,7.77,3.7,8.3z&quot;/&gt;-&lt;/g&gt;-&lt;/svg&gt;-" stroke="#3F67ED" stroke-width="2" fill="#EAEFFF" cx="12" cy="12" r="11"></circle>
                                <g transform="translate(4.000000, 5.000000)" fill="#3F67ED">
                                    <path d="M14.8462,6.6634 C14.1012,5.9194 12.8892,5.9184 12.1432,6.6634 C11.5512,7.2564 11.4372,8.1414 11.7892,8.8564 L9.7272,10.9164 C8.6412,12.0004 6.8782,12.0014 5.7922,10.9164 C4.7072,9.8314 4.7072,8.0664 5.7922,6.9814 L7.9642,4.8094 C8.2352,4.5374 8.2352,4.0974 7.9642,3.8254 C7.6922,3.5544 7.2522,3.5544 6.9802,3.8254 L4.8072,5.9974 C3.1802,7.6254 3.1802,10.2744 4.8072,11.9014 C5.6222,12.7144 6.6902,13.1214 7.7602,13.1214 C8.8292,13.1214 9.8972,12.7144 10.7112,11.9014 L12.8152,9.7964 C13.0342,9.8794 13.2642,9.9244 13.4952,9.9244 C13.9842,9.9244 14.4732,9.7384 14.8462,9.3654 C15.5912,8.6194 15.5912,7.4074 14.8462,6.6634" id="Fill-1"></path>
                                    <path d="M3.6172,4.2671 L5.6782,2.2071 C6.7302,1.1551 8.5622,1.1551 9.6142,2.2071 C10.1392,2.7321 10.4292,3.4311 10.4292,4.1741 C10.4292,4.9171 10.1392,5.6161 9.6142,6.1411 L7.4422,8.3141 C7.1702,8.5851 7.1702,9.0261 7.4422,9.2971 C7.5782,9.4331 7.7562,9.5011 7.9332,9.5011 C8.1122,9.5011 8.2902,9.4331 8.4262,9.2971 L10.5972,7.1251 C11.3862,6.3371 11.8202,5.2891 11.8202,4.1741 C11.8202,3.0591 11.3862,2.0111 10.5972,1.2221 C9.8092,0.4341 8.7612,0.0001 7.6462,0.0001 C6.5312,0.0001 5.4832,0.4341 4.6942,1.2221 L2.5822,3.3351 C1.8992,3.0921 1.0872,3.2301 0.5592,3.7571 C0.1992,4.1191 0.0002,4.5991 0.0002,5.1091 C0.0002,5.6201 0.1992,6.0991 0.5592,6.4601 C0.9212,6.8211 1.4002,7.0201 1.9112,7.0201 C2.4212,7.0201 2.9012,6.8211 3.2622,6.4601 C3.8552,5.8671 3.9692,4.9811 3.6172,4.2671" id="Fill-3"></path>
                                </g>
                            </g>
                        </g>
                    </g>
                </g>
            </g>
        </g>
    </g>
</svg>