<?xml version="1.0" encoding="UTF-8"?>
<svg width="28px" height="28px" viewBox="0 0 28 28" version="1.1" xmlns="http://www.w3.org/2000/svg" xmlns:xlink="http://www.w3.org/1999/xlink">
    <!-- Generator: Sketch 63 (92445) - https://sketch.com -->
    <title>登记分片结果</title>
    <desc>Created with Sketch.</desc>
    <g id="后台设计" stroke="none" stroke-width="1" fill="none" fill-rule="evenodd">
        <g id="结果文件排序-各种图标状态" transform="translate(-399.000000, -332.000000)">
            <g id="编组-8备份" transform="translate(369.000000, 332.000000)">
                <g id="登记分片结果" transform="translate(30.000000, 0.000000)">
                    <g id="编组-16">
                        <path d="M15.5,3.02072594 C14.5717968,2.48482756 13.4282032,2.48482756 12.5,3.02072594 L5.24166975,7.21132487 C4.77756814,7.47927406 4.40256814,7.86084392 4.14359354,8.30940108 C3.88461894,8.75795824 3.74166975,9.27350269 3.74166975,9.80940108 L3.74166975,18.1905989 C3.74166975,19.2623957 4.31346652,20.2527767 5.24166975,20.7886751 L12.5,24.9792741 C13.4282032,25.5151724 14.5717968,25.5151724 15.5,24.9792741 L22.7583302,20.7886751 C23.6865335,20.2527767 24.2583302,19.2623957 24.2583302,18.1905989 L24.2583302,9.80940108 C24.2583302,9.27350269 24.1153811,8.75795824 23.8564065,8.30940108 C23.5974319,7.86084392 23.2224319,7.47927406 22.7583302,7.21132487 L15.5,3.02072594 Z" id="多边形" stroke="#3F67ED" stroke-width="2" fill="#EAEFFF"></path>
                        <g id="编组-7" transform="translate(8.000000, 9.000000)" fill="#3F67ED">
                            <rect id="矩形" x="0" y="0" width="7" height="2" rx="1"></rect>
                            <rect id="矩形备份-3" x="0" y="4" width="12" height="2" rx="1"></rect>
                            <rect id="矩形备份-6" x="0" y="8" width="9" height="2" rx="1"></rect>
                        </g>
                    </g>
                </g>
            </g>
        </g>
    </g>
</svg>