<?xml version="1.0" encoding="UTF-8"?>
<svg width="28px" height="28px" viewBox="0 0 28 28" version="1.1" xmlns="http://www.w3.org/2000/svg" xmlns:xlink="http://www.w3.org/1999/xlink">
    <!-- Generator: Sketch 63 (92445) - https://sketch.com -->
    <title>分片文件解析入库-点击前状态备份 9</title>
    <desc>Created with Sketch.</desc>
    <g id="后台设计" stroke="none" stroke-width="1" fill="none" fill-rule="evenodd">
        <g id="结果文件排序-各种图标状态" transform="translate(-843.000000, -332.000000)">
            <g id="编组-15备份-8" transform="translate(815.000000, 332.000000)">
                <g id="编组-14">
                    <g id="编组-9" transform="translate(28.000000, 0.000000)">
                        <g id="分片文件解析入库-点击前状态备份-6">
                            <g id="编组" transform="translate(0.000000, 1.000000)">
                                <path d="M15.31675,2.11195094 C14.3885468,1.57605256 13.2449532,1.57605256 12.31675,2.11195094 L5.05841975,6.30254987 C4.59431814,6.57049906 4.21931814,6.95206892 3.96034354,7.40062608 C3.70136894,7.84918324 3.55841975,8.36472769 3.55841975,8.90062608 L3.55841975,17.2818239 C3.55841975,18.3536207 4.13021652,19.3440017 5.05841975,19.8799001 L12.31675,24.0704991 C13.2449532,24.6063974 14.3885468,24.6063974 15.31675,24.0704991 L22.5750802,19.8799001 C23.5032835,19.3440017 24.0750802,18.3536207 24.0750802,17.2818239 L24.0750802,8.90062608 C24.0750802,7.82882931 23.5032835,6.83844825 22.5750802,6.30254987 L15.31675,2.11195094 Z" id="多边形" stroke="#3F67ED" stroke-width="2" fill="#EAEFFF"></path>
                                <path d="M13.151,7.3621 L9.551,10.9611 C9.178,11.3341 9.178,11.9381 9.551,12.3111 L9.615,12.3751 C9.988,12.7481 10.593,12.7481 10.966,12.3751 L12.826,10.5151 L12.826,18.1001 C12.826,18.6531 13.274,19.1001 13.826,19.1001 C14.379,19.1001 14.826,18.6531 14.826,18.1001 L14.826,10.5141 L16.655,12.3431 C17.045,12.7341 17.678,12.7341 18.069,12.3431 C18.46,11.9531 18.46,11.3201 18.069,10.9291 L14.565,7.4251 L14.533,7.3931 L14.502,7.3621 C14.129,6.9891 13.524,6.9891 13.151,7.3621" id="Fill-3" fill="#3F67ED"></path>
                            </g>
                        </g>
                    </g>
                </g>
            </g>
        </g>
    </g>
</svg>