<?xml version="1.0" encoding="UTF-8"?>
<svg width="64px" height="64px" viewBox="0 0 64 64" version="1.1" xmlns="http://www.w3.org/2000/svg" xmlns:xlink="http://www.w3.org/1999/xlink">
    <!-- Generator: Sketch 63 (92445) - https://sketch.com -->
    <title>文件拆分-点击前状态</title>
    <desc>Created with Sketch.</desc>
    <g id="后台设计" stroke="none" stroke-width="1" fill="none" fill-rule="evenodd">
        <g id="5.批次任务配置-批次流程设置-文件下载拆分-点配置-配置页面" transform="translate(-818.000000, -206.000000)">
            <g id="编组-13" transform="translate(818.000000, 206.000000)">
                <g id="文件拆分-加载失败状态">
                    <g>
                        <g id="编组-9" transform="translate(6.857143, 8.000000)" fill="#EAEFFF">
                            <rect id="矩形" x="0" y="12.4174557" width="50.2857143" height="34.8417415" rx="2"></rect>
                            <rect id="矩形" x="0" y="-1.60379646e-13" width="28.5015259" height="19.7318256"></rect>
                        </g>
                        <g id="编组" transform="translate(4.571429, 4.571429)" fill="#3F67ED">
                            <path d="M47.8699429,15.1227429 L12.0436571,15.1227429 C10.7956571,15.1227429 9.78308571,16.1353143 9.78308571,17.3833143 C9.78308571,18.6336 10.7956571,19.6461714 12.0436571,19.6461714 L47.8699429,19.6461714 C49.2299429,19.6461714 50.3339429,20.9558857 50.3339429,22.5673143 L50.3339429,47.0198857 C50.3339429,48.6313143 49.2299429,49.9410286 47.8699429,49.9410286 L39.8973714,49.9410286 L14.0665143,49.9410286 L10.2813714,49.9410286 L8.67222857,49.9410286 C6.38422857,49.9410286 4.52137143,47.9616 4.52137143,45.5250286 L4.52137143,9.33302857 C4.52137143,6.89417143 6.38422857,4.91474286 8.67222857,4.91474286 L26.6059429,4.91474286 C28.8939429,4.91474286 30.7545143,6.89417143 30.7545143,9.33302857 C30.7545143,10.5833143 31.7670857,11.5936 33.0150857,11.5936 C34.2653714,11.5936 35.2779429,10.5833143 35.2779429,9.33302857 C35.2779429,4.40502857 31.3876571,0.3936 26.6059429,0.3936 L8.67222857,0.3936 C3.89051429,0.3936 0.000228571429,4.40502857 0.000228571429,9.33302857 L0.000228571429,45.5250286 C0.000228571429,50.4530286 3.89051429,54.4644571 8.67222857,54.4644571 L10.2813714,54.4644571 L14.0665143,54.4644571 L39.8973714,54.4644571 L47.8699429,54.4644571 L48.5693714,54.4644571 L48.5693714,54.3890286 C52.0893714,54.0096 54.8573714,50.8713143 54.8573714,47.0198857 L54.8573714,22.5673143 C54.8573714,18.4621714 51.7236571,15.1227429 47.8699429,15.1227429" id="Fill-3"></path>
                            <path d="M30.6301714,35.4107429 L27.4324571,32.2130286 L27.4278857,32.2176 L19.8758857,24.6656 C18.9936,23.7810286 17.5627429,23.7810286 16.6781714,24.6656 C15.7958857,25.5478857 15.7958857,26.9810286 16.6781714,27.8610286 L24.2301714,35.4153143 L16.6781714,42.9673143 C15.7958857,43.8496 15.7958857,45.2804571 16.6781714,46.1650286 C17.5627429,47.0473143 18.9936,47.0473143 19.8758857,46.1650286 L27.4278857,38.6107429 L34.9798857,46.1650286 C35.8644571,47.0473143 37.2953143,47.0473143 38.1776,46.1650286 C39.0598857,45.2804571 39.0598857,43.8496 38.1776,42.9673143 L30.6278857,35.4153143 L30.6301714,35.4107429 Z" id="Fill-5"></path>
                            <path d="M38.1780571,24.6651429 L38.1780571,24.6651429 C37.2957714,23.7805714 35.8626286,23.7805714 34.9803429,24.6651429 L31.3117714,28.3337143 C30.4272,29.216 30.4272,30.6491429 31.3117714,31.5314286 C32.1940571,32.416 33.6249143,32.416 34.5094857,31.5314286 L38.1780571,27.8605714 C39.0603429,26.9805714 39.0603429,25.5474286 38.1780571,24.6651429" id="Fill-7"></path>
                        </g>
                    </g>
                </g>
            </g>
        </g>
    </g>
</svg>