<?xml version="1.0" encoding="UTF-8"?>
<svg width="64px" height="64px" viewBox="0 0 64 64" version="1.1" xmlns="http://www.w3.org/2000/svg" xmlns:xlink="http://www.w3.org/1999/xlink">
    <!-- Generator: Sketch 63 (92445) - https://sketch.com -->
    <title>文件体检-点击前状态</title>
    <desc>Created with Sketch.</desc>
    <g id="后台设计" stroke="none" stroke-width="1" fill="none" fill-rule="evenodd">
        <g id="5.批次任务配置-批次流程设置-文件下载拆分-点配置-配置页面" transform="translate(-639.000000, -206.000000)">
            <g id="编组-12" transform="translate(639.000000, 206.000000)">
                <g id="编组-7">
                    <g id="文件体检-点击前状态">
                        <rect id="矩形" fill="#EAEFFF" x="6.85714286" y="10.3652571" width="48.3504" height="34.5941714"></rect>
                        <g id="编组" transform="translate(4.571429, 4.571429)" fill="#3F67ED">
                            <path d="M8.43954286,5.79382857 C6.11268571,5.79382857 4.22011429,7.6864 4.22011429,10.0132571 L4.22011429,35.3321143 C4.22011429,37.6566857 6.11268571,39.5538286 8.43954286,39.5538286 L46.4166857,39.5538286 C48.7435429,39.5538286 50.6361143,37.6566857 50.6361143,35.3321143 L50.6361143,10.0132571 C50.6361143,7.6864 48.7435429,5.79382857 46.4166857,5.79382857 L8.43954286,5.79382857 Z M46.4166857,43.7709714 L8.43954286,43.7709714 C3.78582857,43.7709714 0.000685714286,39.9858286 0.000685714286,35.3321143 L0.000685714286,10.0132571 C0.000685714286,5.35954286 3.78582857,1.57211429 8.43954286,1.57211429 L46.4166857,1.57211429 C51.0704,1.57211429 54.8578286,5.35954286 54.8578286,10.0132571 L54.8578286,35.3321143 C54.8578286,39.9858286 51.0704,43.7709714 46.4166857,43.7709714 L46.4166857,43.7709714 Z" id="Fill-3"></path>
                            <path d="M44.3078857,52.4500571 L10.5478857,52.4500571 C9.38445714,52.4500571 8.44045714,51.5060571 8.44045714,50.3403429 C8.44045714,49.1746286 9.38445714,48.2306286 10.5478857,48.2306286 L44.3078857,48.2306286 C45.4736,48.2306286 46.4176,49.1746286 46.4176,50.3403429 C46.4176,51.5060571 45.4736,52.4500571 44.3078857,52.4500571" id="Fill-5"></path>
                            <path d="M36.3883429,27.3721143 C35.8512,27.3721143 35.3323429,27.1824 34.9186286,26.8395429 L24.3174857,17.9481143 L19.3620571,26.2589714 C18.9506286,26.9469714 18.2032,27.3721143 17.3986286,27.3721143 L17.3757714,27.3721143 L11.0466286,27.3081143 C9.78491429,27.2944 8.77234286,26.2612571 8.78367563,24.9995429 C8.79748571,23.7446857 9.81691429,22.7366857 11.0694857,22.7366857 L11.0946286,22.7366857 L16.1094857,22.7869714 L21.7666286,13.3012571 C22.1094857,12.7275429 22.6877714,12.3298286 23.3483429,12.2178286 C24.0066286,12.1149714 24.6854857,12.2909714 25.1974857,12.7206857 L37.2112,22.7938286 L44.8112,22.7366857 L44.8272,22.7366857 C46.0820571,22.7366857 47.1037714,23.7469714 47.1130097,25.0041143 C47.1243429,26.2681143 46.1072,27.2989714 44.8454857,27.3081143 L36.4066286,27.3721143 L36.3883429,27.3721143 Z" id="Fill-7"></path>
                        </g>
                    </g>
                </g>
            </g>
        </g>
    </g>
</svg>