<?xml version="1.0" encoding="UTF-8"?>
<svg width="64px" height="64px" viewBox="0 0 64 64" version="1.1" xmlns="http://www.w3.org/2000/svg" xmlns:xlink="http://www.w3.org/1999/xlink">
    <!-- Generator: Sketch 63 (92445) - https://sketch.com -->
    <title>文件下载-点击前状态</title>
    <desc>Created with Sketch.</desc>
    <g id="后台设计" stroke="none" stroke-width="1" fill="none" fill-rule="evenodd">
        <g id="5.批次任务配置-批次流程设置-文件下载拆分-点配置-配置页面" transform="translate(-454.000000, -206.000000)">
            <g id="编组-8" transform="translate(454.000000, 206.000000)">
                <g id="编组-7">
                    <g id="文件下载-点击前状态">
                        <g id="编组" transform="translate(4.571429, 4.571429)">
                            <g id="编组-9" transform="translate(2.285714, 2.705516)" fill="#EAEFFF">
                                <rect id="矩形" x="0" y="12.4174557" width="50.2857143" height="39.2728416" rx="4"></rect>
                                <rect id="矩形" x="0" y="-1.60379646e-13" width="28.5015259" height="19.7318256"></rect>
                            </g>
                            <path d="M14.0662857,49.9421714 L8.672,49.9421714 C6.384,49.9421714 4.52114286,47.9627429 4.52114286,45.5238857 L4.52114286,9.33188571 C4.52114286,6.89531429 6.384,4.91588571 8.672,4.91588571 L26.6057143,4.91588571 C28.8937143,4.91588571 30.7542857,6.89531429 30.7542857,9.33188571 C30.7542857,10.5798857 31.7668571,11.5947429 33.0171429,11.5947429 C34.2651429,11.5947429 35.2777143,10.5798857 35.2777143,9.33188571 C35.2777143,4.40388571 31.3874286,0.392457143 26.6057143,0.392457143 L8.672,0.392457143 C3.89028571,0.392457143 0,4.40388571 0,9.33188571 L0,45.5238857 C0,50.4541714 3.89028571,54.4656 8.672,54.4656 L14.0662857,54.4656 C15.3142857,54.4656 16.3268571,53.4530286 16.3268571,52.2027429 C16.3268571,50.9524571 15.3142857,49.9421714 14.0662857,49.9421714" id="Fill-3" fill="#3F67ED"></path>
                            <path d="M47.8710857,15.1229714 L12.0448,15.1229714 C10.7945143,15.1229714 9.78194286,16.1332571 9.78194286,17.3835429 C9.78194286,18.6338286 10.7945143,19.6464 12.0448,19.6464 L47.8710857,19.6464 C49.2288,19.6464 50.3350857,20.9561143 50.3350857,22.5675429 L50.3350857,47.0201143 C50.3350857,48.6315429 49.2288,49.9412571 47.8710857,49.9412571 L39.8962286,49.9412571 C38.6482286,49.9412571 37.6356571,50.9538286 37.6356571,52.2041143 C37.6356571,53.4544 38.6482286,54.4646857 39.8962286,54.4646857 L47.8710857,54.4646857 C51.7225143,54.4646857 54.8585143,51.1252571 54.8585143,47.0201143 L54.8585143,22.5675429 C54.8585143,18.4624 51.7225143,15.1229714 47.8710857,15.1229714" id="Fill-5" fill="#3F67ED"></path>
                            <path d="M32.832,53.6518857 L42.4251429,44.0610286 C43.3074286,43.1764571 43.3074286,41.7456 42.4251429,40.8610286 C41.5428571,39.9787429 40.1097143,39.9787429 39.2274286,40.8610286 L33.4948571,46.5936 L33.4948571,27.0324571 C33.4948571,25.7821714 32.4822857,24.7696 31.232,24.7696 C29.984,24.7696 28.9714286,25.7821714 28.9714286,27.0324571 L28.9714286,52.0541714 C28.9714286,52.3490286 29.0308571,52.6416 29.1451429,52.9181714 C29.2594286,53.1901714 29.4217143,53.4324571 29.6251429,53.6381714 C29.6297143,53.6427429 29.6297143,53.6496 29.6342857,53.6518857 L29.6434286,53.6587429 C29.8491429,53.8644571 30.096,54.0267429 30.368,54.1410286 C30.64,54.2530286 30.9257143,54.3078857 31.2137143,54.3101714 C31.2205714,54.3101714 31.2251429,54.3147429 31.232,54.3147429 C31.2388571,54.3147429 31.2457143,54.3101714 31.2525714,54.3101714 C31.5405714,54.3078857 31.8262857,54.2530286 32.0982857,54.1410286 C32.3725714,54.0244571 32.624,53.8621714 32.832,53.6518857" id="Fill-7" fill="#3F67ED"></path>
                            <path d="M23.4201143,41.0514286 C22.5378286,40.1668571 21.1046857,40.1668571 20.2224,41.0514286 C19.3401143,41.9337143 19.3401143,43.3668571 20.2224,44.2468571 L23.4201143,47.4468571 C24.3046857,48.3291429 25.7355429,48.3291429 26.6178286,47.4468571 C27.5024,46.5622857 27.5024,45.1314286 26.6178286,44.2468571 L23.4201143,41.0514286 Z" id="Fill-9" fill="#3F67ED"></path>
                        </g>
                    </g>
                </g>
            </g>
        </g>
    </g>
</svg>