<?xml version="1.0" encoding="UTF-8"?>
<svg width="64px" height="64px" viewBox="0 0 64 64" version="1.1" xmlns="http://www.w3.org/2000/svg" xmlns:xlink="http://www.w3.org/1999/xlink">
    <!-- Generator: Sketch 63 (92445) - https://sketch.com -->
    <title>分片上传-点击前状态</title>
    <desc>Created with Sketch.</desc>
    <g id="后台设计" stroke="none" stroke-width="1" fill="none" fill-rule="evenodd">
        <g id="5.批次任务配置-批次流程设置-文件下载拆分-点配置-配置页面" transform="translate(-1000.000000, -206.000000)">
            <g id="编组-15" transform="translate(990.000000, 206.000000)">
                <g id="分片上传-加载失败状态-2" transform="translate(10.000000, 0.000000)">
                    <g id="分片上传-加载失败状态">
                        <rect id="矩形" fill="#F9F9F9" x="6.85714286" y="9.14285714" width="50.2857143" height="48" rx="2"></rect>
                        <path d="M50.2857143,6.85714286 C55.3351749,6.85714286 59.4285714,10.9505394 59.4285714,16 L59.4285714,50.2857143 C59.4285714,55.3351749 55.3351749,59.4285714 50.2857143,59.4285714 L13.7142857,59.4285714 C8.66482514,59.4285714 4.57142857,55.3351749 4.57142857,50.2857143 L4.57142857,16 C4.57142857,10.9505394 8.66482514,6.85714286 13.7142857,6.85714286 L50.2857143,6.85714286 Z M50.2857143,11.4285714 L13.7142857,11.4285714 C11.3043159,11.4285714 9.32990829,13.2934349 9.15539597,15.6588289 L9.14285714,16 L9.14285714,50.2857143 C9.14285714,52.6956841 11.0077207,54.6700917 13.3731146,54.844604 L13.7142857,54.8571429 L50.2857143,54.8571429 C52.6956841,54.8571429 54.6700917,52.9922793 54.844604,50.6268854 L54.8571429,50.2857143 L54.8571429,16 C54.8571429,13.5900302 52.9922793,11.6156226 50.6268854,11.4411103 L50.2857143,11.4285714 Z" id="矩形" fill="#3F67ED" fill-rule="nonzero"></path>
                        <path d="M33.5102727,23.9000298 C34.2749521,22.7197504 35.8931437,22.5183347 36.923223,23.4129637 L37.1209703,23.6065382 L48.8137143,36.4868571 L55.8102964,30.2892813 C56.682423,29.5164771 57.9804142,29.5313538 58.8334287,30.2813291 L59.036908,30.4841071 C59.8097122,31.3562337 59.7948355,32.6542249 59.0448602,33.5072394 L58.8420822,33.7107187 L50.1561343,41.4074645 C49.2914013,42.1737171 48.0062468,42.1664157 47.1519483,41.4318348 L46.9478425,41.2330648 L35.7302857,28.8777143 L26.6350259,42.9193714 C25.835108,44.1540412 24.1185632,44.3061147 23.1095491,43.3025905 L22.9176613,43.0864561 L14.2009342,31.9638007 C13.4222613,30.9702041 13.5964913,29.5334958 14.590088,28.7548229 C15.5072541,28.0360479 16.8019828,28.1292139 17.6081922,28.9292909 L17.7990658,29.1439766 L24.5394286,37.744 L33.5102727,23.9000298 Z" id="路径-2" fill="#3F67ED" fill-rule="nonzero"></path>
                    </g>
                </g>
            </g>
        </g>
    </g>
</svg>