<?xml version="1.0" encoding="UTF-8"?>
<svg width="24px" height="24px" viewBox="0 0 24 24" version="1.1" xmlns="http://www.w3.org/2000/svg" xmlns:xlink="http://www.w3.org/1999/xlink">
    <!-- Generator: Sketch 63 (92445) - https://sketch.com -->
    <title>数据图标</title>
    <desc>Created with Sketch.</desc>
    <defs>
        <linearGradient x1="50%" y1="0%" x2="50%" y2="100%" id="linearGradient-1">
            <stop stop-color="#73A0F7" offset="0%"></stop>
            <stop stop-color="#3F67ED" offset="100%"></stop>
        </linearGradient>
    </defs>
    <g id="后台设计" stroke="none" stroke-width="1" fill="none" fill-rule="evenodd">
        <g id="25.批次总控任务-数据列表" transform="translate(-352.000000, -129.000000)">
            <g id="编组-18" transform="translate(-1.000000, 0.000000)">
                <g id="编组-14" transform="translate(317.000000, 97.000000)">
                    <g id="编组-13" transform="translate(36.000000, 32.000000)">
                        <g id="查看数据">
                            <g id="数据图标">
                                <circle id="椭圆形" fill="url(#linearGradient-1)" cx="12" cy="12" r="12"></circle>
                                <g id="编组-53" transform="translate(6.000000, 5.333333)" fill="#FFFFFF">
                                    <path d="M1.16666667,2.66666667 L2.83333333,2.66666667 C3.10947571,2.66666667 3.33333333,2.89052429 3.33333333,3.16666667 L3.33333333,12 L3.33333333,12 L0.666666667,12 L0.666666667,3.16666667 C0.666666667,2.89052429 0.890524292,2.66666667 1.16666667,2.66666667 Z" id="矩形"></path>
                                    <path d="M9.16666667,2.66666667 L10.8333333,2.66666667 C11.1094757,2.66666667 11.3333333,2.89052429 11.3333333,3.16666667 L11.3333333,12 L11.3333333,12 L8.66666667,12 L8.66666667,3.16666667 C8.66666667,2.89052429 8.89052429,2.66666667 9.16666667,2.66666667 Z" id="矩形备份-12"></path>
                                    <path d="M5.16666667,0 L6.83333333,0 C7.10947571,-2.95990229e-16 7.33333333,0.223857625 7.33333333,0.5 L7.33333333,12 L7.33333333,12 L4.
                                    66666667,0.5 C4.66666667,0.223857625 4.89052429,5.07265313e-17 5.16666667,0 Z" id="矩形备份-11"></path>
                                </g>
                                <rect id="矩形" fill="#FFFFFF" x="4" y="16" width="16" height="1.33333333" rx="0.2"></rect>
                            </g>
                        </g>
                    </g>
                </g>
            </g>
        </g>
    </g>
</svg>