<?xml version="1.0" encoding="UTF-8"?>
<svg width="33px" height="32px" viewBox="0 0 33 32" version="1.1" xmlns="http://www.w3.org/2000/svg" xmlns:xlink="http://www.w3.org/1999/xlink">
    <!-- Generator: Sketch 63 (92445) - https://sketch.com -->
    <title>总控任务节点-图标</title>
    <desc>Created with Sketch.</desc>
    <g id="后台设计" stroke="none" stroke-width="1" fill="none" fill-rule="evenodd">
        <g id="13.批次任务配置-批次引擎服务配置-联机服务调度-批转联服务调度" transform="translate(-245.000000, -224.000000)">
            <g id="编组-33" transform="translate(212.000000, 166.000000)">
                <g id="编组-29" transform="translate(0.500000, 49.000000)">
                    <g id="总控任务节点-图标-" transform="translate(33.000000, 9.000000)">
                        <g id="编组-62备份" transform="translate(2.000000, 2.000000)">
                            <path d="M14,0 C21.7319865,0 28,6.2680135 28,14 C28,21.7319865 21.7319865,28 14,28 C6.2680135,28 0,21.7319865 0,14 C0,6.2680135 6.2680135,0 14,0 Z M14,2 C7.372583,2 2,7.372583 2,14 C2,20.627417 7.372583,26 14,26 C20.627417,26 26,20.627417 26,14 C26,7.372583 20.627417,2 14,2 Z" id="椭圆形" fill="#3F67ED" fill-rule="nonzero"></path>
                            <circle id="椭圆形" fill="#EAEFFF" cx="14" cy="14" r="12.0003333"></circle>
                            <g id="编组-67" transform="translate(6.500000, 5.000000)" fill="#3F67ED">
                                <g id="编组-66">
                                    <path d="M11.5,0.56274414 C12.0522847,0.56274414 12.5,1.01045939 12.5,1.56274414 L12.5008388,3.70793324 C13.9461522,4.13847613 15,5.47754047 15,7.06274414 C15,8.64794781 13.9461522,9.98701215 12.5008388,10.417555 L12.5,16.5627441 C12.5,17.1150289 12.0522847,17.5627441 11.5,17.5627441 C10.9477153,17.5627441 10.5,17.1150289 10.5,16.5627441 L10.5001626,10.4178532 C9.05433459,9.98763064 8,8.64831391 8,7.06274414 C8,5.47717437 9.05433459,4.13785764 10.5001626,3.70763508 L10.5,1.56274414 C10.5,1.01045939 10.9477153,0.56274414 11.5,0.56274414 Z M3.5,0.437255859 C4.05228475,0.437255859 4.5,0.884971109 4.5,1.43725586 L4.5008388,7.58244495 C5.94615223,8.01298785 7,9.35205219 7,10.9372559 C7,12.5224595 5.94615223,13.8615239 4.5008388,14.2920668 L4.5,16.4372559 C4.5,16.9895406 4.05228475,17.4372559 3.5,17.4372559 C2.94771525,17.4372559 2.5,16.9895406 2.5,16.4372559 L2.50016263,14.2923649 C1.05433459,13.8621424 1.46016532e-13,12.5228256 1.46016532e-13,10.9372559 C1.46745074e-13,9.35168609 1.05433459,8.01236936 2.50016263,7.5821468 L2.5,1.43725586 C2.5,0.884971109 2.94771525,0.437255859 3.5,0.437255859 Z M3.5,9.43725586 C2.67157288,9.43725586 2,10.1088287 2,10.9372559 C2,11.765683 2.67157288,12.4372559 3.5,12.4372559 C4.32842712,12.4372559 5,11.765683 5,10.9372559 C5,10.1088287 4.32842712,9.43725586 3.5,9.43725586 Z M11.5,5.56274414 C10.6715729,5.56274414 10,6.23431702 10,7.06274414 C10,7.89117127 10.6715729,8.56274414 11.5,8.56274414 C12.3284271,8.56274414 13,7.89117127 13,7.06274414 C13,6.23431702 12.3284271,5.56274414 11.5,5.56274414 Z" id="形状结合"></path>
                                </g>
                            </g>
                        </g>
                    </g>
                </g>
            </g>
        </g>
    </g>
</svg>