<?xml version="1.0" encoding="UTF-8"?>
<svg width="33px" height="32px" viewBox="0 0 33 32" version="1.1" xmlns="http://www.w3.org/2000/svg" xmlns:xlink="http://www.w3.org/1999/xlink">
    <!-- Generator: Sketch 63 (92445) - https://sketch.com -->
    <title>文件拆分-图标 </title>
    <desc>Created with Sketch.</desc>
    <g id="后台设计" stroke="none" stroke-width="1" fill="none" fill-rule="evenodd">
        <g id="13.批次任务配置-批次引擎服务配置-联机服务调度-批转联服务调度" transform="translate(-245.000000, -273.000000)">
            <g id="编组-33" transform="translate(212.000000, 166.000000)">
                <g id="编组-8备份" transform="translate(0.500000, 98.000000)">
                    <g id="编组-32">
                        <g id="文件拆分-图标-" transform="translate(33.000000, 9.000000)">
                            <g id="下载" transform="translate(2.000000, 2.000000)">
                                <path d="M14,0 C21.7319865,0 28,6.2680135 28,14 C28,21.7319865 21.7319865,28 14,28 C6.2680135,28 0,21.7319865 0,14 C0,6.2680135 6.2680135,0 14,0 Z" id="路径" fill="#3F67ED" fill-rule="nonzero"></path>
                                <path d="M14,2 C7.372583,2 2,7.372583 2,14 C2,20.627417 7.372583,26 14,26 C20.627417,26 26,20.627417 26,14 C26,7.372583 20.627417,2 14,2 Z" id="路径" fill="#3F67ED" fill-rule="nonzero"></path>
                                <circle id="椭圆形" fill="#EAEFFF" cx="14" cy="14" r="12"></circle>
                                <path d="M13.9929923,15.1114759 C13.7570877,15.0976111 13.5251589,15.0005578 13.3449169,14.8203158 L13.3449169,14.8203158 L11.2235966,12.6989955 C10.8330723,12.3084712 10.8330723,11.6753062 11.2235966,11.2847819 C11.6141209,10.8942576 12.2472858,10.8942576 12.6378101,11.2847819 L12.6378101,11.2847819 L13.1447034,11.791 L13.1455444,7 C13.1455444,6.44771525 13.5932597,6 14.1455444,6 C14.6978292,6 15.1455444,6.44771525 15.1455444,7 L15.1447034,11.638 L15.4990978,11.2847819 C15.8896221,10.8942576 16.5227871,10.8942576 16.9133114,11.2847819 C17.3038356,11.6753062 17.3038356,12.3084712 16.9133114,12.6989955 L14.791991,14.8203158 C14.611749,15.0005578 14.3798203,15.0976111 14.1439156,15.1114759 Z" id="形状结合" fill="#3F67ED"></path>
                                <path d="M7.5,20 C6.94771525,20 6.5,19.5522847 6.5,19 L6.5,16 C6.5,15.4477153 6.94771525,15 7.5,15 C8.05228475,15 8.5,15.4477153 8.5,16 L8.5,18 L19.5,18 L19.5,16 C19.5,15.4477153 19.9477153,15 20.5,15 C21.0522847,15 21.5,15.4477153 21.5,16 L21.5,19 L21.5,19 C21.5,19.5128358 21.1139598,19.9355072 20.6166211,19.9932723 L20.5,20 L20.5,20 L7.5,20 L7.5,20 Z" id="形状结合" fill="#3F67ED"></path>
                            </g>
                        </g>
                    </g>
                </g>
            </g>
        </g>
    </g>
</svg>