<?xml version="1.0" encoding="UTF-8"?>
<svg width="33px" height="32px" viewBox="0 0 33 32" version="1.1" xmlns="http://www.w3.org/2000/svg" xmlns:xlink="http://www.w3.org/1999/xlink">
    <!-- Generator: Sketch 63 (92445) - https://sketch.com -->
    <title>结果文件排序-图标 </title>
    <desc>Created with Sketch.</desc>
    <g id="后台设计" stroke="none" stroke-width="1" fill="none" fill-rule="evenodd">
        <g id="13.批次任务配置-批次引擎服务配置-联机服务调度-批转联服务调度" transform="translate(-245.000000, -370.000000)">
            <g id="编组-33" transform="translate(212.000000, 166.000000)">
                <g id="编组-8备份-3" transform="translate(0.500000, 196.000000)">
                    <g id="编组-7" transform="translate(33.000000, 8.000000)">
                        <g id="结果文件排序-图标备份">
                            <g id="编组-55" transform="translate(2.000000, 2.000000)">
                                <g id="编组-62">
                                    <path d="M14,0 C21.7319865,0 28,6.2680135 28,14 C28,21.7319865 21.7319865,28 14,28 C6.2680135,28 0,21.7319865 0,14 C0,6.2680135 6.2680135,0 14,0 Z M14,2 C7.372583,2 2,7.372583 2,14 C2,20.627417 7.372583,26 14,26 C20.627417,26 26,20.627417 26,14 C26,7.372583 20.627417,2 14,2 Z" id="椭圆形" fill="#3F67ED" fill-rule="nonzero"></path>
                                    <circle id="椭圆形" fill="#EAEFFF" cx="14" cy="14" r="12"></circle>
                                </g>
                                <g id="编组-58" transform="translate(7.500000, 7.500000)" fill="#3F67ED">
                                    <g id="编组-57">
                                        <path d="M4.70710678,0.878679656 C4.89845611,1.07002899 4.99604798,1.31963173 4.99988239,1.57040181 C4.99981828,1.5811595 5,1.59224367 5,1.60337029 L5,11.6033703 C5,12.155655 4.55228475,12.6033703 4,12.6033703 C3.44771525,12.6033703 3,12.155655 3,11.6033703 L2.99957288,3.99978644 L1.87867966,5.12132034 C1.48815536,5.51184464 0.854990386,5.51184464 0.464466094,5.12132034 C0.0739418023,4.73079605 0.0739418023,4.09763107 0.464466094,3.70710678 L3.29289322,0.878679656 C3.68341751,0.488155365 4.31658249,0.488155365 4.70710678,0.878679656 Z" id="形状结合"></path>
                                    </g>
                                    <g id="编组-57" transform="translate(10.000000, 6.500000) rotate(-180.000000) translate(-10.000000, -6.500000) translate(7.500000, 0.000000)">
                                        <path d="M4.70710678,0.878679656 C4.89845611,1.07002899 4.99604798,1.31963173 4.99988239,1.57040181 C4.99981828,1.5811595 5,1.59224367 5,1.60337029 L5,11.6033703 C5,12.155655 4.55228475,12.6033703 4,12.6033703 C3.44771525,12.6033703 3,12.155655 3,11.6033703 L2.99957288,3.99978644 L1.87867966,5.12132034 C1.48815536,5.51184464 0.854990386,5.51184464 0.464466094,5.12132034 C0.0739418023,4.73079605 0.0739418023,4.09763107 0.464466094,3.70710678 L3.29289322,0.878679656 C3.68341751,0.488155365 4.31658249,0.488155365 4.70710678,0.878679656 Z" id="形状结合"></path>
                                    </g>
                                </g>
                            </g>
                        </g>
                    </g>
                </g>
            </g>
        </g>
    </g>
</svg>