<?xml version="1.0" encoding="UTF-8"?>
<svg width="32px" height="33px" viewBox="0 0 32 33" version="1.1" xmlns="http://www.w3.org/2000/svg" xmlns:xlink="http://www.w3.org/1999/xlink">
    <!-- Generator: Sketch 63 (92445) - https://sketch.com -->
    <title>结果文件排序-图标 </title>
    <desc>Created with Sketch.</desc>
    <defs>
        <polygon id="path-1" points="0.499023437 0.141113281 16.4981368 0.141113281 16.4981368 16.1411133 0.499023437 16.1411133"></polygon>
    </defs>
    <g id="后台设计" stroke="none" stroke-width="1" fill="none" fill-rule="evenodd">
        <g id="13.批次任务配置-批次引擎服务配置-联机服务调度-批转联服务调度" transform="translate(-245.000000, -419.000000)">
            <g id="编组-33" transform="translate(212.000000, 166.000000)">
                <g id="编组-8备份-4" transform="translate(0.000000, 245.500000)">
                    <g id="编组-7" transform="translate(33.000000, 8.000000)">
                        <g id="结果文件排序-图标备份-2">
                            <g id="编组-60" transform="translate(2.000000, 2.000000)">
                                <g id="编组-55备份">
                                    <g id="编组-62">
                                        <path d="M14,0 C21.7319865,0 28,6.2680135 28,14 C28,21.7319865 21.7319865,28 14,28 C6.2680135,28 0,21.7319865 0,14 C0,6.2680135 6.2680135,0 14,0 Z M14,2 C7.372583,2 2,7.372583 2,14 C2,20.627417 7.372583,26 14,26 C20.627417,26 26,20.627417 26,14 C26,7.372583 20.627417,2 14,2 Z" id="椭圆形" fill="#3F67ED" fill-rule="nonzero"></path>
                                        <circle id="椭圆形" fill="#EAEFFF" cx="14" cy="14" r="12"></circle>
                                    </g>
                                </g>
                                <g id="编组" transform="translate(5.000000, 7.000000)">
                                    <g id="编组-59">
                                        <mask id="mask-2" fill="white">
                                            <use xlink:href="#path-1"></use>
                                        </mask>
                                        <g id="Clip-2"></g>
                                        <path d="M3.36981203,6.2229484 L8.00694399,8.63245692 L10.415515,13.2705264 L13.9388352,2.69962817 L3.36981203,6.2229484 Z M10.4755183,15.6415953 C9.89986138,15.6415953 9.36733187,15.3209526 9.09825446,14.8006112 L6.61561689,10.0228465 L1.83691459,7.5402089 C1.28094628,7.24956779 0.954678198,6.66078516 1.0034309,6.03825067 C1.05312115,5.41290352 1.46845667,4.88037401 2.06192705,4.68255055 L13.9500858,0.719518441 C14.341045,0.590136272 14.774194,0.620137935 15.1398392,0.804835669 C15.5054845,0.986720748 15.7905003,1.31580148 15.9198825,1.70488554 L15.9198825,1.70676065 C16.0248883,2.02271566 16.0248883,2.37148498 15.9198825,2.68743999 L11.9568504,14.5765363 C11.7590269,15.1718818 11.2264974,15.5872173 10.6011502,15.63597 C10.5589604,15.6397202 10.5167706,15.6415953 10.4755183,15.6415953 L10.4755183,15.6415953 Z" id="Fill-1" fill="#3F67ED" mask="url(#mask-2)"></path>
                                    </g>
                                </g>
                            </g>
                        </g>
                    </g>
                </g>
            </g>
        </g>
    </g>
</svg>