<?xml version="1.0" encoding="UTF-8"?>
<svg width="28px" height="28px" viewBox="0 0 28 28" version="1.1" xmlns="http://www.w3.org/2000/svg" xmlns:xlink="http://www.w3.org/1999/xlink">
    <title>分片文件解析入库-点击前状态</title>
    <g id="页面-1" stroke="none" stroke-width="1" fill="none" fill-rule="evenodd">
        <g id="5-6.批次流程设置-联机服务调度-分片结果文件生成-打开数据附加域" transform="translate(-814.000000, -438.000000)">
            <g id="编组-21备份" transform="translate(799.000000, 428.000000)">
                <g id="编组-7" transform="translate(15.000000, 10.000000)">
                    <g id="编组" transform="translate(3.000000, 3.000000)">
                        <rect id="矩形" fill="#EAEFFF" x="0" y="0" width="22" height="22" rx="4"></rect>
                        <g id="编组-24" transform="translate(3.000000, 8.000000)" fill="#3F67ED">
                            <g id="编组-23" transform="translate(0.000000, 0.019571)">
                                <rect id="矩形" x="1" y="2" width="6" height="2"></rect>
                                <path d="M0.141421356,2.85857864 L2.65857864,0.341421356 C2.7366835,0.263316498 2.8633165,0.263316498 2.94142136,0.341421356 C2.97892863,0.378928632 3,0.429799415 3,0.482842712 L3,5.51715729 C3,5.62761424 2.91045695,5.71715729 2.8,5.71715729 C2.7469567,5.71715729 2.69608592,5.69608592 2.65857864,5.65857864 L0.141421356,3.14142136 C0.0633164979,3.0633165 0.0633164979,2.9366835 0.141421356,2.85857864 Z" id="路径-4"></path>
                            </g>
                            <g id="编组-23备份" transform="translate(12.203793, 3.000000) rotate(-180.000000) translate(-12.203793, -3.000000) translate(8.703793, 0.000000)">
                                <rect id="矩形" x="1" y="2" width="6" height="2"></rect>
                                <path d="M0.141421356,2.85857864 L2.65857864,0.341421356 C2.7366835,0.263316498 2.8633165,0.263316498 2.94142136,0.341421356 C2.97892863,0.378928632 3,0.429799415 3,0.482842712 L3,5.51715729 C3,5.62761424 2.91045695,5.71715729 2.8,5.71715729 C2.7469567,5.71715729 2.69608592,5.69608592 2.65857864,5.65857864 L0.141421356,3.14142136 C0.0633164979,3.0633165 0.0633164979,2.9366835 0.141421356,2.85857864 Z" id="路径-4"></path>
                            </g>
                        </g>
                        <path d="M18,0 C20.209139,0 22,1.790861 22,4 L22,18 C22,20.209139 20.209139,22 18,22 L4,22 C1.790861,22 0,20.209139 0,18 L0,4 C0,1.790861 1.790861,0 4,0 L18,0 Z M18,2 L4,2 C2.9456382,2 2.08183488,2.81587779 2.00548574,3.85073766 L2,4 L2,18 C2,19.0543618 2.81587779,19.9181651 3.85073766,19.9945143 L4,20 L18,20 C19.0543618,20 19.9181651,19.1841222 19.9945143,18.1492623 L20,18 L20,4 C20,2.9456382 19.1841222,2.08183488 18.1492623,2.00548574 L18,2 Z" id="矩形" fill="#3F67ED" fill-rule="nonzero"></path>
                    </g>
                </g>
            </g>
        </g>
    </g>
</svg>