<?xml version="1.0" encoding="UTF-8"?>
<svg width="18px" height="18px" viewBox="0 0 18 18" version="1.1" xmlns="http://www.w3.org/2000/svg" xmlns:xlink="http://www.w3.org/1999/xlink">
    <!-- Generator: Sketch 63 (92445) - https://sketch.com -->
    <title>Icon/Fill/Close-Circle-Fill备份 20</title>
    <desc>Created with Sketch.</desc>
    <g id="后台设计" stroke="none" stroke-width="1" fill="none" fill-rule="evenodd">
        <g id="画板" transform="translate(-679.000000, -355.000000)">
            <g id="Icon/Fill/Close-Circle-Fill备份-25" transform="translate(679.000000, 355.000000)">
                <g id="-mockplus-">
                    <g id="Icon/Fill/Close-Circle-Fill备份-20" transform="translate(1.000000, 1.000000)">
                        <g id="执行中" transform="translate(0.125000, 0.125000)">
                            <path d="M7.875,0 C3.52617188,0 0,3.52617188 0,7.875 C0,12.2238281 3.52617188,15.75 7.875,15.75 C12.2238281,15.75 15.75,12.2238281 15.75,7.875 C15.75,3.52617188 12.2238281,0 7.875,0 Z" id="路径备份-2" fill="#3F67ED"></path>
                            <g id="编组" transform="translate(6.196276, 3.945632)" fill="#FFFFFF">
                                <path d="M0.6625,5.0625 L4.9625,5.0625 C5.01772847,5.0625 5.0625,5.10727153 5.0625,5.1625 L5.0625,6.0875 C5.0625,6.14272847 5.01772847,6.1875 4.9625,6.1875 L0.6625,6.1875 C0.607271525,6.1875 0.5625,6.14272847 0.5625,6.0875 L0.5625,5.1625 C0.5625,5.10727153 0.607271525,5.0625 0.6625,5.0625 Z" id="矩形"></path>
                                <path d="M-1.59627619,2.8125 L3.82872381,2.8125 C3.88395229,2.8125 3.92872381,2.85727153 3.92872381,2.9125 L3.92872381,3.8375 C3.92872381,3.89272847 3.88395229,3.9375 3.82872381,3.9375 L-1.59627619,3.9375 C-1.65150466,3.9375 -1.69627619,3.89272847 -1.69627619,3.8375 L-1.69627619,2.9125 C-1.69627619,2.85727153 -1.65150466,2.8125 -1.59627619,2.8125 Z" id="矩形备份" transform="translate(1.116224, 3.375000) rotate(-90.000000) translate(-1.116224, -3.375000) "></path>
                            </g>
                        </g>
                    </g>
                </g>
            </g>
        </g>
    </g>
</svg>