<?xml version="1.0" standalone="no"?><!DOCTYPE svg PUBLIC "-//W3C//DTD SVG 1.1//EN" "http://www.w3.org/Graphics/SVG/1.1/DTD/svg11.dtd"><svg t="1611060097613" class="icon" viewBox="0 0 1024 1024" version="1.1" xmlns="http://www.w3.org/2000/svg" p-id="1716" xmlns:xlink="http://www.w3.org/1999/xlink" width="200" height="200"><defs><style type="text/css"></style></defs><path d="M499.2 51.2a448 448 0 1 0 0.0512 896.0512A448 448 0 0 0 499.2 51.2z m-32 231.9872c0-4.4032 3.584-7.9872 7.9872-7.9872h48.0256c4.4032 0 7.9872 3.584 7.9872 7.9872v272.0256c0 4.4032-3.584 7.9872-7.9872 7.9872H475.136a8.0384 8.0384 0 0 1-7.9872-7.9872V283.136z m32 440.0128a48.0256 48.0256 0 1 1 0-96 48.0256 48.0256 0 0 1 0 96z" fill="#e02020" p-id="1717"></path></svg>