<?xml version="1.0" encoding="UTF-8"?>
<svg width="14px" height="14px" viewBox="0 0 14 14" version="1.1" xmlns="http://www.w3.org/2000/svg" xmlns:xlink="http://www.w3.org/1999/xlink">
    <!-- Generator: Sketch 63 (92445) - https://sketch.com -->
    <title>执行成功</title>
    <desc>Created with Sketch.</desc>
    <g id="后台设计" stroke="none" stroke-width="1" fill="none" fill-rule="evenodd">
        <g id="各种图标状态-重跑状态" transform="translate(-301.000000, -220.000000)">
            <g id="执行成功" transform="translate(301.000000, 220.000000)">
                <g id="-mockplus-">
                    <g id="加载状态-成功">
                        <g id="执行成功">
                            <path d="M7,0 C3.134375,0 0,3.134375 0,7 C0,10.865625 3.134375,14 7,14 C10.865625,14 14,10.865625 14,7 C14,3.134375 10.865625,0 7,0 Z" id="路径" fill="#c2c2c2"></path>
                            <g transform="translate(7.021484, 7.029663) rotate(10.000000) translate(-7.021484, -7.029663) translate(3.021484, 3.529663)" fill="#ffffff">
                                <path d="M4.79983399,0.194444444 C4.79983399,0.0875 4.85608399,0 4.92483399,0 L5.67483399,0 C5.74358399,0 5.79983399,0.0875 5.79983399,0.194444444 L5.79983399,6.80555556 C5.79983399,6.9125 5.74358399,7 5.67483399,7 L4.92483399,7 C4.85608399,7 4.79983399,6.9125 4.79983399,6.80555556 L4.79983399,0.194444444 Z" id="路径" transform="translate(5.299834, 3.500000) rotate(-330.000000) translate(-5.299834, -3.500000) "></path>
                                <path d="M2,3.4510452 C2,3.38993409 2.05625,3.33993409 2.125,3.33993409 L2.875,3.33993409 C2.94375,3.33993409 3,3.38993409 3,3.4510452 L3,7.22882298 C3,7.28993409 2.94375,7.33993409 2.875,7.33993409 L2.125,7.33993409 C2.05625,7.33993409 2,7.28993409 2,7.22882298 L2,3.4510452 Z" id="路径备份" transform="translate(2.500000, 5.339934) rotate(-240.000000) translate(-2.500000, -5.339934) "></path>
                            </g>
                        </g>
                    </g>
                </g>
            </g>
        </g>
    </g>
</svg>