<?xml version="1.0" encoding="UTF-8"?>
<svg width="14px" height="14px" viewBox="0 0 14 14" version="1.1" xmlns="http://www.w3.org/2000/svg" xmlns:xlink="http://www.w3.org/1999/xlink">
    <!-- Generator: Sketch 63 (92445) - https://sketch.com -->
    <title>执行成功</title>
    <desc>Created with Sketch.</desc>
    <g id="后台设计" stroke="none" stroke-width="1" fill="none" fill-rule="evenodd">
        <g id="各种图标状态-重跑状态1" transform="translate(-301.000000, -220.000000)">
            <g id="执行成功" transform="translate(301.000000, 220.000000)">
                <g id="-mockplus-">
                    <g id="加载状态-成功">
                        <g id="执行成功">
                            <path d="M7,0 C3.134375,0 0,3.134375 0,7 C0,10.865625 3.134375,14 7,14 C10.865625,14 14,10.865625 14,7 C14,3.134375 10.865625,0 7,0 Z" id="路径" fill="#6236ff"></path>
                            <g id="编组" transform="translate(2.000000, 3.000000)" fill="#FFFFFF" fill-rule="nonzero">
                                <path d="M1.43537015,4.59525443 L2.14450908,4.35107831 C2.20951349,4.3286955 2.28101211,4.36356771 2.30339492,4.42857211 L2.50350028,5.01273502 C2.50812745,5.02437677 2.51284034,5.03598372 2.51763854,5.04755507 C2.64663558,5.35864454 2.83629176,5.64147837 3.07462861,5.87981523 C3.55299791,6.35818453 4.19865092,6.63127272 4.88880748,6.63127272 C6.30576932,6.63127272 7.45444384,5.4825982 7.45444384,4.06563636 C7.45444384,2.64867453 6.30576932,1.5 4.88880748,1.5 C4.19865092,1.5 3.55299791,1.77308819 3.07462861,2.25145749 C2.95576047,2.37032563 2.84873589,2.50054057 2.755254,2.64012289 C2.60159217,2.86956277 2.29102689,2.93099302 2.06158701,2.77733119 C1.83214714,2.62366937 1.77071689,2.31310409 1.92437871,2.08366421 C2.05414846,1.88989875 2.20263605,1.70923649 2.36752183,1.54435071 C3.03156842,0.880304128 3.93070836,0.5 4.88880748,0.5 C6.85805407,0.5 8.45444384,2.09638978 8.45444384,4.06563636 C8.45444384,6.03488295 6.85805407,7.63127272 4.88880748,7.63127272 C3.93070836,7.63127272 3.03156842,7.25096859 2.36752183,6.58692201 C2.03676356,6.25616374 1.77334464,5.8633277 1.59390559,5.43059221 L1.58909565,5.42 L1.58309565,5.409 L1.58284673,5.4075017 L1.57909565,5.399 L1.57309565,5.381 L1.56909565,5.37 L1.56409565,5.355 L1.53087344,5.26730135 C1.51120324,5.21234012 1.49288076,5.15686233 1.47592758,5.10091117 L1.47309565,5.089 L1.47009565,5.081 L1.46409647,5.06262588 L1.46409647,5.06262588 L1.44609565,5.012 L1.43726536,4.98470269 C1.09808825,3.99966083 1.928177,6.41041362 1.41577531,4.92229107 L1.38309565,4.83 L1.40009565,4.877 L1.38425177,4.83074004 C1.37926359,4.81625333 1.37473886,4.80311256 1.37078056,4.79161682 L1.36609565,4.779 L1.36070793,4.76236379 L1.36070793,4.76236379 L1.35709565,4.754 L1.35609565,4.751 L1.35709565,4.752 L1.35110028,4.7148032 C1.35064771,4.66250105 1.38336663,4.61316067 1.43537015,4.59525443 Z" id="形状结合"></path>
                                <path d="M2.50394286,1.41810396 L3.45653602,2.84699371 C3.57907701,3.03080518 3.52940746,3.27915292 3.34559598,3.4016939 C3.27988898,3.44549858 3.2026859,3.46887379 3.1237159,3.46887379 L1.21852958,3.46887379 C0.997615678,3.46887379 0.818529578,3.28978769 0.818529578,3.06887379 C0.818529578,2.98990379 0.841904789,2.91270072 0.885709461,2.84699371 L1.83830262,1.41810396 C1.96084361,1.23429249 2.20919134,1.18462294 2.39300282,1.30716392 C2.43694374,1.33645787 2.47464892,1.37416305 2.50394286,1.41810396 Z" id="三角形" transform="translate(2.171123, 2.193874) rotate(-125.000000) translate(-2.171123, -2.193874) "></path>
                            </g>
                        </g>
                    </g>
                </g>
            </g>
        </g>
    </g>
</svg>